<svg xmlns="http://www.w3.org/2000/svg" viewBox="0 0 500 500"><g id="freepik--Neurons--inject-205"><g id="freepik--Cells--inject-205"><g id="freepik--Cell--inject-205"><path d="M331.17,133.08c.58-1.2,2.17-1.06,3.05-1.91a7.71,7.71,0,0,0-.06,4.18c-.43.09-.06.78-.24,1.1-.17,1-1.2,2.35-.51,3.22a17,17,0,0,0,1-3.6,6.43,6.43,0,0,1,.8,4.29c0,.19.19.34.23.09.55-4.39-2.39-6.61.69-11.23.25,1.82,1.55,3.26,2.75,4.6-.58,1.52-1.52,3.08-.76,4.74.06.18.19,0,.15-.14-.63-1.56.47-2.81,1-4.15a5,5,0,0,1,1.48,3.27c0,.21.26.29.27,0,0-4.48-6.48-7.08-2.16-11.68,6.06-6.16-1.29-12.71-1.17-19.47.85-3.3,3-6.2,5.13-8.83,1.42-1.75,6.83-3.14,10.71-3.8-.69.12,8.58,10.34,8.86,10.87-2.21,2.94-4.73,4.34-.95,7.58-2.07-.6-3.72,1.11-4.8,2.67-.13.17.06.79.29.58,1.59-1.71,3.84-2.67,6-1.52.05,2.25-2.2,3.92-2.15,6.24,0,.2.25.28.26,0,.3-2.27,3.3-3.31,3-5.92,3.09,1.45.38,4.82.18,7.18.36,1.82,2.23-4.76,2.24-5.31-.1-3.2-5.26-3.68-5.5-6.85.85-1.43,2.51-2.33,3.15-4,.49-.07,13.52-2.33,13.69-2.69,2.15,3.75,8.07,4.94,8.4,9.58,0,.28.35.58.45.18,1.1-3.84-3.25-5.56-5.36-7.88,2.35.47,3.78-.62,5.46,1.72,2.27,1.29,5.22.37,7.23,2.44.17-1-1.65-2-2.62-2.48-1.3-.63-2.91-.16-4.14-.93-1-.74-1.5-1.94-2.92-2-2.07.18-4.62.37-5.49-2l4-11.47a8.24,8.24,0,0,0,5.62-2.79c2.17-.43,4.38,1.65,6.49.31.09-.05.1-.35,0-.32-2,.55-3.66-1-5.56-1.24,1.61-3.87,3.9-5.69,7.43-6.49-7.28-1.3-7.38,8.39-13.73,9,.54-.13-8.55-10.29-8.7-10.58,1.76-1.78,3.06-4.25,2.39-6.69.31-.71,1.16-.86,1.72-1.29a5.61,5.61,0,0,0,1-4.73c-.11-.26-.32,0-.26.21.47,2.24-1.42,3.51-3.2,4.25-2-2.39-4.06-5.26-2.34-8.4,0-.12-.06-.59-.23-.37-4.42,6.94,5.49,9.27-.59,16.12-1.14.1-13.7,2.06-14.45,3-2.13-7-11.33-3.59-10.79-10.53,0-.18-.22-.42-.27-.15a5.58,5.58,0,0,0,2.95,6c-2,.34-4.64,1.08-5.88-1-.18-.34-.38.11-.27.34,1.61,2.92,5.88,2.37,8.58,1.63,2.67.79,3.89,3.38,4.71,5.77L354,91.65a67.06,67.06,0,0,0-11.49,2.87c-1.7,1-1.41,1-3.69,4.87s-4.09,7.49-2.16,11.59c3.33,6.81,4.6,9.94-.78,16.18a10.53,10.53,0,0,1-3.53,4.2C332,131.78,330.75,132.66,331.17,133.08Z" style="fill:#ebebeb"></path><path d="M361.2,91.84a7.14,7.14,0,1,1,7.8,6.4A7.14,7.14,0,0,1,361.2,91.84Z" style="fill:#fafafa"></path></g><g id="freepik--cell--inject-205"><path d="M412.42,448.4c1-.89.43-2.37,1-3.45a7.64,7.64,0,0,1-4,1.19c0,.44-.74.27-1,.53-.89.43-1.94,1.8-3,1.37a17.38,17.38,0,0,1,3.19-1.94,6.41,6.41,0,0,0-4.35.4c-.17.07-.38-.09-.15-.19,4.08-1.73,7,.49,10.62-3.73-1.82.25-3.56-.6-5.17-1.4-1.3,1-2.55,2.3-4.36,2-.19,0,0-.19.1-.19,1.67.19,2.58-1.21,3.72-2.09a5,5,0,0,0-3.55-.53c-.2.06-.35-.17-.11-.25,4.31-1.2,8.57,4.31,11.82-1.1,4.28-7.51,12.58-2.23,19-4.19,2.94-1.72,5.15-4.57,7.1-7.34,1.3-1.83,1.16-7.42.74-11.34.07.7-12.29-5.44-12.87-5.56-2.23,2.93-2.89,5.73-7,3,1.15,1.83,0,3.89-1.26,5.34-.13.18-.78.17-.64-.12,1.21-2,1.53-4.41-.18-6.19-2.17.56-3.16,3.18-5.41,3.77-.19.06-.33-.16-.11-.24,2.11-.9,2.29-4.08,4.88-4.51-2.24-2.57-4.74,1-6.95,1.79-1.86.15,4-3.44,4.49-3.6,3.11-.78,5,4.06,8.09,3.43,1.14-1.21,1.56-3.06,2.94-4.12-.06-.48-1.44-13.63-1.14-13.9-4.19-1.05-6.95-6.41-11.51-5.47-.27.08-.65-.18-.29-.38,3.39-2.11,6.23,1.61,9,3-1.1-2.14-.43-3.81-3.14-4.79-1.86-1.83-1.78-4.92-4.32-6.28.91-.44,2.41,1,3.1,1.83,1,1.08.94,2.76,2,3.73,1,.79,2.27.92,2.75,2.26.4,2,.9,4.55,3.42,4.74l9.94-7a8.25,8.25,0,0,1,1.15-6.17c-.17-2.2-2.78-3.75-2.07-6.15,0-.1.32-.2.32-.06,0,2.1,1.91,3.27,2.71,5,3.28-2.6,4.42-5.3,4.22-8.92,3.23,6.65-6.06,9.4-5,15.68,0-.56,12.24,5.41,12.55,5.49,1.24-2.18,3.26-4.11,5.79-4.12.6-.49.51-1.35.78-2a5.57,5.57,0,0,1,4.26-2.26c.29,0,.07.31-.12.31-2.29.15-3,2.32-3.22,4.23,2.83,1.24,6.17,2.47,8.72,0,.1-.08.58-.11.42.11-5.48,6.14-10.42-2.75-15.36,5,.22,1.13,1.76,13.75,1.09,14.72,7.36.12,6.54,9.92,13.07,7.51.16-.08.46.09.22.22a5.59,5.59,0,0,1-6.59-1.2c.2,2,.23,4.76,2.58,5.37.38.09,0,.41-.24.36-3.26-.75-3.89-5-3.92-7.81-1.48-2.36-4.31-2.82-6.83-3l-8.45,6a66.16,66.16,0,0,1,.37,11.84c-.47,1.89-.56,1.61-3.67,4.87s-6.1,6-10.57,5.23c-7.47-1.34-10.82-1.71-15.36,5.17a10.5,10.5,0,0,0-3.07,4.54C413.44,447.24,412.94,448.69,412.42,448.4Z" style="fill:#ebebeb"></path><path d="M443.92,408.27a7.14,7.14,0,1,0-8.29-5.77A7.14,7.14,0,0,0,443.92,408.27Z" style="fill:#fafafa"></path></g><g id="freepik--cell--inject-205"><path d="M96.13,45.67c-1.08.74-.72,2.27-1.42,3.25a7.38,7.38,0,0,1,4.06-.65c0-.43.76-.17,1-.39.92-.31,2.12-1.5,3.07-1a17.44,17.44,0,0,1-3.37,1.48,6.29,6.29,0,0,0,4.3.17c.18,0,.35.14.12.21C99.72,50,97.14,47.4,93.07,51.05c1.81,0,3.4,1.05,4.87,2,1.4-.79,2.79-1.92,4.52-1.42.19,0,0,.19-.12.17-1.6-.4-2.67.85-3.91,1.57a5,5,0,0,0,3.41,1c.2,0,.31.21.07.26-4.37.61-7.81-5.32-11.69-.46-5.15,6.78-12.58.53-19.15,1.61C68,57.08,65.45,59.59,63.19,62c-1.51,1.63-2.1,7.1-2.2,11,0-.69,11.29,6.91,11.84,7.11,2.56-2.58,3.57-5.22,7.26-2-.88-1.93.56-3.79,1.93-5.05.15-.16.78-.06.61.2-1.44,1.79-2.07,4.11-.63,6.07,2.19-.27,3.5-2.7,5.77-3,.2,0,.31.2.08.25-2.17.61-2.76,3.68-5.35,3.77,1.85,2.8,4.75-.32,7-.84,1.83.09-4.32,2.84-4.86,2.93-3.13.35-4.33-4.61-7.45-4.4-1.27,1-1.92,2.78-3.41,3.63,0,.48-.37,13.51-.69,13.73,4,1.57,6,7.17,10.52,6.83.28,0,.62.27.24.42-3.58,1.61-5.88-2.38-8.44-4.12.8,2.23-.07,3.78,2.45,5.08,1.58,2,1.09,5,3.4,6.7-.94.31-2.22-1.31-2.79-2.19-.8-1.18-.56-2.82-1.49-3.91-.86-.89-2.1-1.19-2.39-2.56-.12-2.05-.29-4.56-2.73-5.08l-10.61,5.56A8.11,8.11,0,0,1,59.34,108c-.12,2.17,2.23,4,1.22,6.28,0,.1-.33.15-.32,0,.25-2.06-1.44-3.44-2-5.25-3.54,2.11-5,4.6-5.28,8.16-2.29-6.91,7.14-8.38,6.88-14.67-.05.55-11.24-6.87-11.54-7-1.49,2-3.71,3.59-6.19,3.27-.65.41-.67,1.26-1,1.87a5.5,5.5,0,0,1-4.46,1.66c-.27-.07,0-.31.16-.29,2.26.15,3.23-1.87,3.69-3.71-2.6-1.58-5.7-3.22-8.51-1.1-.11.06-.59,0-.4-.17,6.15-5.29,9.82,4,15.64-2.85-.06-1.13.08-13.65.85-14.51-7.17-1.08-5.09-10.54-11.78-9-.17,0-.44-.16-.19-.25a5.5,5.5,0,0,1,6.28,2c.06-2,.4-4.68-1.82-5.58-.36-.14,0-.4.29-.32,3.08,1.16,3.14,5.4,2.8,8.14,1.14,2.49,3.84,3.31,6.29,3.78l9-4.72a65.94,65.94,0,0,1,1.17-11.61c.71-1.79.76-1.51,4.23-4.28s6.72-5,11-3.74c7.11,2.29,10.34,3.08,15.66-3a10.34,10.34,0,0,0,3.6-4C95,46.68,95.67,45.32,96.13,45.67Z" style="fill:#ebebeb"></path><path d="M60.16,80.76a7,7,0,1,0,7.34,6.71A7,7,0,0,0,60.16,80.76Z" style="fill:#fafafa"></path></g><g id="freepik--cell--inject-205"><path d="M123.06,431.4c.61-1.23,2.24-1.08,3.16-1.94a7.76,7.76,0,0,0-.1,4.3c-.44.09-.07.8-.26,1.13-.18,1-1.25,2.41-.54,3.31a17.83,17.83,0,0,0,1.05-3.7,6.64,6.64,0,0,1,.79,4.43c0,.19.19.35.23.09.6-4.52-2.4-6.83.8-11.55.25,1.87,1.57,3.37,2.8,4.75-.61,1.56-1.59,3.16-.83,4.88.07.18.2,0,.17-.15-.65-1.6.5-2.89,1.06-4.27a5.21,5.21,0,0,1,1.49,3.39c0,.22.26.3.28,0,0-4.61-6.61-7.34-2.13-12,6.29-6.29-1.23-13.09-1-20,.9-3.39,3.13-6.37,5.35-9,1.47-1.79,7-3.18,11-3.83-.71.12,8.75,10.71,9,11.26-2.3,3-4.9,4.43-1,7.79-2.12-.63-3.84,1.12-5,2.72-.13.17.05.81.3.59,1.64-1.74,4-2.71,6.2-1.51,0,2.31-2.31,4-2.27,6.4,0,.21.25.29.27.05.32-2.34,3.42-3.38,3.14-6.08,3.16,1.52.34,5,.12,7.39.36,1.88,2.33-4.87,2.35-5.44-.08-3.3-5.39-3.83-5.61-7.09.89-1.47,2.61-2.38,3.28-4.05.5-.06,13.93-2.29,14.11-2.65,2.18,3.87,8.26,5.14,8.56,9.93,0,.28.36.6.46.18,1.17-3.93-3.29-5.74-5.45-8.15,2.42.51,3.9-.61,5.61,1.82,2.33,1.34,5.37.41,7.42,2.57.18-1-1.68-2.12-2.67-2.58-1.33-.66-3-.19-4.26-1-1-.77-1.52-2-3-2.11-2.14.16-4.77.34-5.65-2.11l4.25-11.77a8.45,8.45,0,0,0,5.81-2.83c2.23-.42,4.49,1.74,6.67.38.1-.05.11-.36,0-.34-2.09.56-3.76-1-5.71-1.32,1.69-4,4.06-5.82,7.71-6.61-7.49-1.4-7.68,8.57-14.22,9.19.56-.13-8.7-10.67-8.87-11,1.83-1.82,3.19-4.35,2.52-6.87.32-.72,1.2-.87,1.78-1.31a5.76,5.76,0,0,0,1.09-4.86c-.11-.27-.32,0-.27.21.47,2.31-1.49,3.61-3.33,4.35-2-2.47-4.13-5.45-2.34-8.66.05-.13-.06-.61-.23-.39-4.6,7.11,5.57,9.59-.73,16.59-1.19.1-14.13,2-14.91,2.94-2.13-7.28-11.63-3.78-11-10.92,0-.19-.23-.44-.29-.16a5.76,5.76,0,0,0,3,6.21c-2,.34-4.78,1.07-6-1.1-.19-.35-.39.11-.28.35,1.63,3,6,2.49,8.82,1.75,2.74.83,4,3.51,4.8,6l-3.61,10a68.24,68.24,0,0,0-11.85,2.85c-1.76,1-1.45,1-3.83,5s-4.28,7.68-2.32,11.92c3.38,7,4.65,10.27-.94,16.65-1,1.66-1.94,3.3-3.66,4.29C123.94,430.07,122.63,431,123.06,431.4Z" style="fill:#ebebeb"></path><path d="M154.3,389.19a7.35,7.35,0,1,1,8,6.66A7.35,7.35,0,0,1,154.3,389.19Z" style="fill:#fafafa"></path></g></g></g><g id="freepik--Dots--inject-205"><g id="freepik--dots--inject-205"><circle cx="168.69" cy="448.51" r="3.21" style="fill:#ebebeb"></circle><circle cx="47.45" cy="410.93" r="3.21" style="fill:#ebebeb"></circle><path d="M471.22,190.33a3.21,3.21,0,1,1-3.21-3.21A3.21,3.21,0,0,1,471.22,190.33Z" style="fill:#ebebeb"></path><circle cx="411.64" cy="55.24" r="3.21" style="fill:#ebebeb"></circle><circle cx="44.24" cy="34.24" r="3.21" style="fill:#ebebeb"></circle><circle cx="103.64" cy="138.75" r="3.21" style="fill:#ebebeb"></circle><circle cx="34.75" cy="315.67" r="3.21" style="fill:#ebebeb"></circle><circle cx="153.27" cy="41.28" r="3.21" style="fill:#ebebeb"></circle><path d="M318.31,74.84a3.21,3.21,0,1,1-3.21-3.21A3.21,3.21,0,0,1,318.31,74.84Z" style="fill:#ebebeb"></path><path d="M318.09,429.79a3.21,3.21,0,1,1-3.21-3.21A3.21,3.21,0,0,1,318.09,429.79Z" style="fill:#ebebeb"></path><path d="M75.82,439.71a8.59,8.59,0,1,1,8.59-8.59A8.59,8.59,0,0,1,75.82,439.71Zm0-16.17a7.59,7.59,0,1,0,7.59,7.58A7.59,7.59,0,0,0,75.82,423.54Z" style="fill:#ebebeb"></path><path d="M338.86,460.56a8.59,8.59,0,1,1,8.59-8.59A8.59,8.59,0,0,1,338.86,460.56Zm0-16.17a7.59,7.59,0,1,0,7.59,7.58A7.59,7.59,0,0,0,338.86,444.39Z" style="fill:#ebebeb"></path><path d="M205,445a8.59,8.59,0,1,1,8.58-8.59A8.6,8.6,0,0,1,205,445Zm0-16.17a7.59,7.59,0,1,0,7.58,7.58A7.6,7.6,0,0,0,205,428.87Z" style="fill:#ebebeb"></path><path d="M291.83,58.45a8.59,8.59,0,1,1,8.58-8.59A8.6,8.6,0,0,1,291.83,58.45Zm0-16.17a7.59,7.59,0,1,0,7.58,7.58A7.59,7.59,0,0,0,291.83,42.28Z" style="fill:#ebebeb"></path><path d="M439.29,92.29a8.59,8.59,0,1,1,8.58-8.59A8.6,8.6,0,0,1,439.29,92.29Zm0-16.17a7.59,7.59,0,1,0,7.58,7.58A7.59,7.59,0,0,0,439.29,76.12Z" style="fill:#ebebeb"></path><path d="M471.22,304a8.59,8.59,0,1,1,8.58-8.59A8.6,8.6,0,0,1,471.22,304Zm0-16.17a7.59,7.59,0,1,0,7.58,7.58A7.59,7.59,0,0,0,471.22,287.81Z" style="fill:#ebebeb"></path><path d="M34.75,221.72a8.59,8.59,0,1,1,8.58-8.59A8.6,8.6,0,0,1,34.75,221.72Zm0-16.17a7.59,7.59,0,1,0,7.58,7.58A7.6,7.6,0,0,0,34.75,205.55Z" style="fill:#ebebeb"></path><path d="M180.76,75.94a8.59,8.59,0,1,1,8.58-8.58A8.59,8.59,0,0,1,180.76,75.94Zm0-16.17a7.59,7.59,0,1,0,7.58,7.59A7.6,7.6,0,0,0,180.76,59.77Z" style="fill:#ebebeb"></path></g></g><g id="freepik--brain-side-2--inject-205"><path d="M320,194.49c5.88-9.32.05-19.31-7-22.54-1.49-6.5-7.85-10.29-14.92-9.1-2.62-14.44-18.6-11.49-21.07-7.94-7-4-12.86-2.36-14.78,1.42-13-7.5-21.07-2.58-21.9,3.75-18.61-7.36-26.55,2.22-26,8.79-14-2.73-19.16,3-19.43,8.89-14.78-1.22-17.25,6.72-16.7,11.64-15.33,0-18.34,10.41-17,17.11-11.22,3.91-13.79,15-10.18,17.7-12.81,5.16-13.63,20.94-10.62,25.78-6.57,8.94-4.56,19.61-1.46,21.53-5.66,7.94,1.46,14,5.29,14.52-4.11,9,.09,14.73,8.66,16.39,3.66,17,21.94,15.39,25.39,13.86,5.8,6.77,16.43,4.83,21.58,2.26A14.5,14.5,0,0,0,220,316.29c6.18,5.8,16.17-1.61,19.06-6.76,10,7.08,19.33-7.73,19.33-7.73s13.53.32,19-15.15c8.89,5.14,18-6,18.68-10.06,7.74.72,11-15.44,11-15.44,11.27-2.2,10.95-19.6,10.95-19.6,11.28-6.51,10-20.88,7.41-24.45C331.88,211.59,327.05,196.43,320,194.49Z" style="fill:#0D6EFD"></path><path d="M320,194.49c5.88-9.32.05-19.31-7-22.54-1.49-6.5-7.85-10.29-14.92-9.1-2.62-14.44-18.6-11.49-21.07-7.94-7-4-12.86-2.36-14.78,1.42-13-7.5-21.07-2.58-21.9,3.75-18.61-7.36-26.55,2.22-26,8.79-14-2.73-19.16,3-19.43,8.89-14.78-1.22-17.25,6.72-16.7,11.64-15.33,0-18.34,10.41-17,17.11-11.22,3.91-13.79,15-10.18,17.7-12.81,5.16-13.63,20.94-10.62,25.78-6.57,8.94-4.56,19.61-1.46,21.53-5.66,7.94,1.46,14,5.29,14.52-4.11,9,.09,14.73,8.66,16.39,3.66,17,21.94,15.39,25.39,13.86,5.8,6.77,16.43,4.83,21.58,2.26A14.5,14.5,0,0,0,220,316.29c6.18,5.8,16.17-1.61,19.06-6.76,10,7.08,19.33-7.73,19.33-7.73s13.53.32,19-15.15c8.89,5.14,18-6,18.68-10.06,7.74.72,11-15.44,11-15.44,11.27-2.2,10.95-19.6,10.95-19.6,11.28-6.51,10-20.88,7.41-24.45C331.88,211.59,327.05,196.43,320,194.49Z" style="fill:#fff;opacity:0.2"></path><path d="M239.69,162.08a32.67,32.67,0,0,0-12.86-2.43c-3.81.16-8.46,3.52-6.77,6.73a5.55,5.55,0,0,0,2.06,2c2.37,1.48,4.52.6,6.45-1a11.73,11.73,0,0,1,7.88-2.88l5.35-.24C241.86,163.18,240.7,162.48,239.69,162.08ZM257,155.39c-2.79-.85-12.14-2.68-11.32,3a1.67,1.67,0,0,0,.14.51,1.35,1.35,0,0,0,.49.46,4.46,4.46,0,0,0,3.67.09c1.19-.41,2.3-1.06,3.52-1.39,2.82-.77,5.23.53,8,.29A7.8,7.8,0,0,0,257,155.39Zm-56.79,27.46c-4.48-2.85-18-5.23-16.49,3.82a3,3,0,0,0,2.46,2.5,4.59,4.59,0,0,0,2.69-1.33,14.75,14.75,0,0,1,9.72-2.94,3.67,3.67,0,0,0,1.55-.09,1.11,1.11,0,0,0,.76-1.22A1.46,1.46,0,0,0,200.23,182.85ZM171.76,193a9,9,0,0,0-5.58,4.59,3,3,0,0,0,.16,2.85,3,3,0,0,0,3,1,6.35,6.35,0,0,0,2.88-1.68c.82-.77,1.57-1.62,2.46-2.31s1.77-1.11,2.63-1.7c.51-.34,1-.83,1-1.44C178.14,192.2,173.1,192.65,171.76,193Zm-10.15,35.8c-5.54-3.5-12.6-1.63-16.35,3.65a13.42,13.42,0,0,0-2.42,7.63,12.41,12.41,0,0,0,.58,4c1.32,3.89,2.75-2.86,3.62-3.92a7.85,7.85,0,0,1,5.88-2.95l5.52-.05c2.21,0,4.85-.28,5.88-2.23a3.85,3.85,0,0,0-.13-3.55A7.2,7.2,0,0,0,161.61,228.76Z" style="fill:#fff;opacity:0.2"></path><path d="M202.63,308.32a14.29,14.29,0,0,0-3.47-22.39,17.79,17.79,0,0,0-3.75-24.37,15.19,15.19,0,0,1-19.54-.31,26.11,26.11,0,0,1-6.86,10c-.67.54-6.86,3.91-7.35,2.7.85,2.1-1,4.39-3.12,5.28a11.24,11.24,0,0,1-9.73-.76,14.9,14.9,0,0,1-5-4.64A12.9,12.9,0,0,1,142,262c.83-2.1,2.67-4,4.91-4.13-1.52.12-5.47-4.15-6.49-5.22-.37-.38-.73-.8-1.07-1.21-5.41,8.62-3.45,18.31-.51,20.13-5.66,7.94,1.46,14,5.29,14.52-4.11,9,.09,14.73,8.66,16.39,3.66,17,21.94,15.39,25.39,13.86,5.8,6.77,16.43,4.83,21.58,2.26a15.81,15.81,0,0,0,4.42,2.35A12.77,12.77,0,0,0,202.63,308.32Z" style="fill:#0D6EFD;opacity:0.30000000000000004"></path><path d="M277.44,286.65c8.89,5.14,18-6,18.68-10.06,7.74.72,11-15.44,11-15.44,11.27-2.2,10.95-19.6,10.95-19.6,11.28-6.51,10-20.88,7.41-24.45,6.44-5.51,1.61-20.67-5.48-22.61a14.64,14.64,0,0,0,1.52-13.07,34.74,34.74,0,0,0-7.9,1c-1.42-5.54-4.32-9-10-8.22-1.88-7.46-9.92-9-15.75-7.62-.57-2.52-3.12-4-5.35-4.91a17.44,17.44,0,0,0-3.74-1,11.08,11.08,0,0,1-2.5-.42c-.72-.28-1.26-.85-2-1.16a9.6,9.6,0,0,1-.27,8.35.63.63,0,0,1-.32.34.72.72,0,0,1-.45-.09,18.06,18.06,0,0,0-11.9-1.05c-.66-2-3.23-6.81-5.81-6.71,1,1.73,1.58,2.94,1.14,5a36.62,36.62,0,0,0-7,2.31,12.68,12.68,0,0,0-4,2.56c-2.43,2.49-2.87,6.26-3.19,9.73a5.34,5.34,0,0,0-3.43-.9c-.08-3.36-.33-7.1-2.77-9.41a9.24,9.24,0,0,1-.19,5.26,11.55,11.55,0,0,1-7.41,6.85,21.51,21.51,0,0,1-10.34.45c1.47.24,4.46,2.34,5.88,3.11s3.62,1.89,4.29,3.49c.91,2.17-.8,4.54-2.61,6.06a12.26,12.26,0,0,1-5.52,2.86,6.23,6.23,0,0,1-5.76-1.75c-1.17-1.34-2-1.27-3.59-.63s-3.44,1.16-5.18,1.75a18.5,18.5,0,0,0-11.35,11.2,36,36,0,0,0-1.45,6.68c-2.7-.21-5.26,1.11-7.6,2.47-1.73,1-3.52,3.11-5.44,1.92a23.65,23.65,0,0,0-3.83-1.84c-1-.41-2.42-.54-3.3-1.25,6.15,4.67,4.43,14.44,2.42,17.12s-7,8.94-6.29,15.18c0,0-7.5,2.14-13.56-1.88a15.14,15.14,0,0,0,10.94,6.69c-3.45,8-2.43,15.87,0,19.53a14.73,14.73,0,0,1-15.88,1.88c3.43,5.94,13,5.18,13,5.18s-3.49,8.08,1.74,14.12a10.38,10.38,0,0,1-6.38,1.3c3.21,3.14,9.81,1.36,9.81,1.36a12.73,12.73,0,0,0,2,4.28c-2.72,5.26-1,11.18,1.77,16.6a16.64,16.64,0,0,0,5.79-.89c5.8,6.77,16.43,4.83,21.58,2.26A14.5,14.5,0,0,0,220,316.29c6.18,5.8,16.17-1.61,19.06-6.76,10,7.08,19.33-7.73,19.33-7.73S272,302.12,277.44,286.65Z" style="fill:#0D6EFD;opacity:0.5"></path><path d="M178.06,189.4a11.07,11.07,0,0,1,1.95,1.42,15.84,15.84,0,0,1,4.21,6.39c.05.15.18-.06.16-.14a15.11,15.11,0,0,0-3.27-7.27,12.6,12.6,0,0,0-3-2.44,11.45,11.45,0,0,0,0,2Zm-17,17.16a22.44,22.44,0,0,1,2.82-.6,24.55,24.55,0,0,1,8.92.33c.17,0,.21-.38.06-.44a24.08,24.08,0,0,0-9.32-1.51,25.62,25.62,0,0,0-2.61.26,13,13,0,0,0,.24,1.91Zm43.71-24.29c.27.24.38-.41.2-.59a23.2,23.2,0,0,0-7.21-4.78,18.21,18.21,0,0,0-2.68-.87,9.24,9.24,0,0,0-.24,1.73l-.3,0a21.15,21.15,0,0,1,4.16,1A18.83,18.83,0,0,1,204.74,182.27Zm40.61-19.66c.18.11.25-.29.14-.39a22.87,22.87,0,0,0-1.85-1.54c-.66-.46-1.33-.9-2-1.3-.35-.21-.73-.38-1.09-.58a9.11,9.11,0,0,0-.28,1.28l-.16-.06c.45.19.91.37,1.35.58C242.75,161.23,244.09,161.88,245.35,162.61Zm-29.6,6.65a51.12,51.12,0,0,1,6.68,2.4c.06,0,.08-.11,0-.14a19.42,19.42,0,0,0-3.17-2.15,34.23,34.23,0,0,0-3.2-1.47c-.59-.24-1.21-.44-1.82-.62a7.72,7.72,0,0,0,0,1.59C214.74,169,215.25,169.12,215.75,169.26Zm49.59-10.6a15.71,15.71,0,0,1,2.22,2.17c.14.18.29-.2.2-.33a19.77,19.77,0,0,0-1.71-2.24,20,20,0,0,0-2.46-2.22c-.28-.22-.57-.42-.86-.63a6.84,6.84,0,0,0-.59.92l-.37-.2c.39.24.79.46,1.17.72A23.55,23.55,0,0,1,265.34,158.66ZM151,224.21h0l.51-.12a26.2,26.2,0,0,1,4.5-.53,42.19,42.19,0,0,1,9.35,1.15c.25.05.19-.47,0-.56a19.19,19.19,0,0,0-9.95-2.69A24.41,24.41,0,0,0,150,222l-.38.08A3.79,3.79,0,0,0,151,224.21ZM198.47,284a16,16,0,0,1-3,2.25,13.76,13.76,0,0,1-3.34,1.09,21.63,21.63,0,0,1-7.86.16,20.12,20.12,0,0,1-12.59-7.33,22.4,22.4,0,0,1-3.34-6.48,21.37,21.37,0,0,0,5-5.21,36.79,36.79,0,0,0,2-3.24c.26-.47.6-1,.88-1.56a14.84,14.84,0,0,0,11.93,2.79c2.89-.58,6-2,7.45-4.7.18-.32-.24-1.06-.65-.84-2.44,1.32-4.78,2.76-7.55,3.27a11.49,11.49,0,0,1-7.12-.91,12.21,12.21,0,0,1-5.17-4.77,11.86,11.86,0,0,1-1.38-4.05c-.29-1.82-.12-3.69-.28-5.52.41-.16.81-.33,1.21-.52,2.61-1.2,6.94-3.46,7.64-6.53.27-1.19-1.55-2.21-2.47-1.45s-1.8,1.81-2.8,2.63a20.66,20.66,0,0,1-3.86,2.45,19.34,19.34,0,0,1-9.51,2c-4.88-.27-10.15-2.69-12.59-7.12-.31-.56-.63.18-.46.56a16.13,16.13,0,0,0,13.87,9.51,20.34,20.34,0,0,0,6.45-.72A16,16,0,0,0,173.59,261a9,9,0,0,0-.74,1.21c-2.51,4.66-5.34,9.1-10.49,11.1-5.33,2.08-11,.87-15.77-2-.36-.22-.43.45-.26.65a16,16,0,0,0,14.73,4.94,17.07,17.07,0,0,0,5.71-2.12,10.71,10.71,0,0,0,.37,1.56,19.27,19.27,0,0,0,1.9,4.19,18.7,18.7,0,0,0,1.79,2.51,11.29,11.29,0,0,0-.62,2.45,11.36,11.36,0,0,1-.85,2.48,10.68,10.68,0,0,1-3.14,3.85,12.69,12.69,0,0,1-9.8,2.21c-.27,0-.21.52,0,.62a11.14,11.14,0,0,0,12-1.1,12.6,12.6,0,0,0,3.49-4.22,13.28,13.28,0,0,0,1.05-3c.07-.32.15-.64.22-1a18.22,18.22,0,0,0,1.71,1.29,21.43,21.43,0,0,0,4.78,2.35c-.06.18-.11.37-.15.54a33.25,33.25,0,0,1-2.19,6.77,22.56,22.56,0,0,1-1.93,3.37c-2.61,3.73-5.88,5.27-10,6.48a.16.16,0,0,0-.05.22,2.29,2.29,0,0,0,1.11.76,4.86,4.86,0,0,0,1,.18c3.46.18,7-2.08,9-4.73a30.64,30.64,0,0,0,5.7-12.52c0-.11,0-.22.05-.33a25.58,25.58,0,0,0,10.24.11c2.88-.54,6.51-1.79,8.07-4.47C201.13,284.3,199.26,283.39,198.47,284ZM150,260a21,21,0,0,0,2.89.81c.07,0,.08-.13,0-.16-3.23-2.16-6.74-4.05-9.51-6.81a18.06,18.06,0,0,1-3-3.82h0v0a19.47,19.47,0,0,0-1.12,1.67,19.29,19.29,0,0,0,2.89,3.36,25,25,0,0,0,5.06,3.59A24,24,0,0,0,150,260Zm64.54-68.57a7.07,7.07,0,0,0-3,1.42,16.82,16.82,0,0,1-10.44,2.72,18.55,18.55,0,0,1-11.75-5.46c-.4-.4-.62.39-.41.69a17.79,17.79,0,0,0,16,7.32.87.87,0,0,0-.09.11,29.73,29.73,0,0,0-2.45,3.14,27.81,27.81,0,0,0-3.49,7.11,15,15,0,0,0-.66,8.48,8,8,0,0,0,1,2.17,23.9,23.9,0,0,0-5-.27c-3.57.14-7.92.62-10.93,2.84A12.94,12.94,0,0,0,182,220c-3.22-3.52-8.25-5.92-13.05-4.68-.38.1-.31,1,.09,1,3.65.18,7.58,1.35,10,4.22a13.1,13.1,0,0,1,2.62,5,12.45,12.45,0,0,1,.44,2.72,12.17,12.17,0,0,0,.55,4.41c.19.43,1,1,1.49.56a3,3,0,0,0,.59-.67,5.21,5.21,0,0,0,.43-1,7.88,7.88,0,0,0,.34-2.26,13.84,13.84,0,0,0-.47-3.38,15,15,0,0,0-.8-2.31,16.23,16.23,0,0,1,4.39-1.85,29.22,29.22,0,0,1,5.75-.75,20.37,20.37,0,0,1,11.33,2.81c.31.18.31-.37.22-.52a7.31,7.31,0,0,0-1.71-2,1.22,1.22,0,0,0-.49-.63c-2.36-1.23-3.44-4-3.43-6.51a19.12,19.12,0,0,1,1.65-7,31.65,31.65,0,0,1,3.17-5.76c.67-1,1.37-1.93,2.1-2.86.21-.28.49-.57.75-.89.32-.08.63-.17.94-.27a19.49,19.49,0,0,0,3.92-1.71c1.14-.66,3-1.65,2.68-3.22C215.43,191.87,215.07,191.34,214.51,191.39Zm-63,93.29A5.47,5.47,0,0,1,149,286a12.28,12.28,0,0,1-2.84.29c-.54,0-1-.12-1.55-.17l-.49-.08h0c-.23.51-.43,1-.61,1.5a9.48,9.48,0,0,0,6.56-.83,4.31,4.31,0,0,0,1.11-.88,2.52,2.52,0,0,0,.39-.59,2.09,2.09,0,0,0,.19-.69C151.71,284.52,151.61,284.6,151.53,284.68Zm89.25-100.84a27.86,27.86,0,0,0-5.13-2.16c-.75-.25-1.52-.45-2.29-.63a10.79,10.79,0,0,0,3.6-3.84,8.13,8.13,0,0,0-.93-9.53c-.49-.56-.89.13-.72.63a9.71,9.71,0,0,1-1.46,8.38c-1.82,2.54-5,3.87-8,4.36a25.32,25.32,0,0,1-10.71-.61,21.87,21.87,0,0,1-4-1.52c-1.26-.63-2.45-1.72-3.77-2.17-.11,0-.14.19-.1.25,1.81,3.11,6.31,5,9.64,6a23.08,23.08,0,0,0,11.23.26,17.61,17.61,0,0,0,2.18-.67,21.69,21.69,0,0,0,2.08.66c.85.27,1.71.55,2.55.85a21.84,21.84,0,0,1,4.87,2.4,19.78,19.78,0,0,1,3.26,2.72,38.56,38.56,0,0,1,3.08,4c.14.19.56.37.67,0,.68-2.07-.89-4.67-2.11-6.16A14,14,0,0,0,240.78,183.84Zm55-2.47a8.46,8.46,0,0,0-1.52-1.75,12.7,12.7,0,0,0-2.14-1.32,13.63,13.63,0,0,0-4.84-1.53,14.69,14.69,0,0,0-5.58.53,11.3,11.3,0,0,0-3.87-4.13l0-.08c.11-.26.21-.53.31-.8a12.64,12.64,0,0,0,.83-4.51,17.77,17.77,0,0,0-.44-3.6c-.51-2.21-1.55-4.31-3.5-5.36-.25-.13-.29.43-.19.55a9.28,9.28,0,0,1,1.8,4,15,15,0,0,1,.06,4A15.34,15.34,0,0,1,276,172l-.2-.12a25.13,25.13,0,0,0-9.24-2.94,41.47,41.47,0,0,0-8.91,0,6.49,6.49,0,0,0,.87-2.64,7.4,7.4,0,0,0-2.31-5.88c-.44-.39-.64.41-.41.71a5.64,5.64,0,0,1,.86,2.29,5.9,5.9,0,0,1,0,2.51,8.35,8.35,0,0,1-.87,2.07,9.33,9.33,0,0,0-.64,1.21,20.58,20.58,0,0,0-3.4.73c-1.36.43-2.91,1-3.7,2.28-.19.32.08,1.16.57,1a34.67,34.67,0,0,1,4.67-1.37c1.36-.24,2.75-.37,4.12-.5a42.77,42.77,0,0,1,9.19.07,25.49,25.49,0,0,1,7.4,2.11,18.63,18.63,0,0,1,3.44,2.1c.91.71,1.71,1.54,2.59,2.29a12.11,12.11,0,0,0-2.5,1.48c-.6.47.48,1.56,1.08,1.23a15,15,0,0,1,8.19-2.07,13.93,13.93,0,0,1,5,1.15,32.26,32.26,0,0,1,3.8,2.15C295.9,182,295.9,181.51,295.81,181.37Z" style="fill:#0D6EFD"></path><path d="M178.06,189.4a11.07,11.07,0,0,1,1.95,1.42,15.84,15.84,0,0,1,4.21,6.39c.05.15.18-.06.16-.14a15.11,15.11,0,0,0-3.27-7.27,12.6,12.6,0,0,0-3-2.44,11.45,11.45,0,0,0,0,2Zm-17,17.16a22.44,22.44,0,0,1,2.82-.6,24.55,24.55,0,0,1,8.92.33c.17,0,.21-.38.06-.44a24.08,24.08,0,0,0-9.32-1.51,25.62,25.62,0,0,0-2.61.26,13,13,0,0,0,.24,1.91Zm43.71-24.29c.27.24.38-.41.2-.59a23.2,23.2,0,0,0-7.21-4.78,18.21,18.21,0,0,0-2.68-.87,9.24,9.24,0,0,0-.24,1.73l-.3,0a21.15,21.15,0,0,1,4.16,1A18.83,18.83,0,0,1,204.74,182.27Zm40.61-19.66c.18.11.25-.29.14-.39a22.87,22.87,0,0,0-1.85-1.54c-.66-.46-1.33-.9-2-1.3-.35-.21-.73-.38-1.09-.58a9.11,9.11,0,0,0-.28,1.28l-.16-.06c.45.19.91.37,1.35.58C242.75,161.23,244.09,161.88,245.35,162.61Zm-29.6,6.65a51.12,51.12,0,0,1,6.68,2.4c.06,0,.08-.11,0-.14a19.42,19.42,0,0,0-3.17-2.15,34.23,34.23,0,0,0-3.2-1.47c-.59-.24-1.21-.44-1.82-.62a7.72,7.72,0,0,0,0,1.59C214.74,169,215.25,169.12,215.75,169.26Zm49.59-10.6a15.71,15.71,0,0,1,2.22,2.17c.14.18.29-.2.2-.33a19.77,19.77,0,0,0-1.71-2.24,20,20,0,0,0-2.46-2.22c-.28-.22-.57-.42-.86-.63a6.84,6.84,0,0,0-.59.92l-.37-.2c.39.24.79.46,1.17.72A23.55,23.55,0,0,1,265.34,158.66ZM151,224.21h0l.51-.12a26.2,26.2,0,0,1,4.5-.53,42.19,42.19,0,0,1,9.35,1.15c.25.05.19-.47,0-.56a19.19,19.19,0,0,0-9.95-2.69A24.41,24.41,0,0,0,150,222l-.38.08A3.79,3.79,0,0,0,151,224.21ZM198.47,284a16,16,0,0,1-3,2.25,13.76,13.76,0,0,1-3.34,1.09,21.63,21.63,0,0,1-7.86.16,20.12,20.12,0,0,1-12.59-7.33,22.4,22.4,0,0,1-3.34-6.48,21.37,21.37,0,0,0,5-5.21,36.79,36.79,0,0,0,2-3.24c.26-.47.6-1,.88-1.56a14.84,14.84,0,0,0,11.93,2.79c2.89-.58,6-2,7.45-4.7.18-.32-.24-1.06-.65-.84-2.44,1.32-4.78,2.76-7.55,3.27a11.49,11.49,0,0,1-7.12-.91,12.21,12.21,0,0,1-5.17-4.77,11.86,11.86,0,0,1-1.38-4.05c-.29-1.82-.12-3.69-.28-5.52.41-.16.81-.33,1.21-.52,2.61-1.2,6.94-3.46,7.64-6.53.27-1.19-1.55-2.21-2.47-1.45s-1.8,1.81-2.8,2.63a20.66,20.66,0,0,1-3.86,2.45,19.34,19.34,0,0,1-9.51,2c-4.88-.27-10.15-2.69-12.59-7.12-.31-.56-.63.18-.46.56a16.13,16.13,0,0,0,13.87,9.51,20.34,20.34,0,0,0,6.45-.72A16,16,0,0,0,173.59,261a9,9,0,0,0-.74,1.21c-2.51,4.66-5.34,9.1-10.49,11.1-5.33,2.08-11,.87-15.77-2-.36-.22-.43.45-.26.65a16,16,0,0,0,14.73,4.94,17.07,17.07,0,0,0,5.71-2.12,10.71,10.71,0,0,0,.37,1.56,19.27,19.27,0,0,0,1.9,4.19,18.7,18.7,0,0,0,1.79,2.51,11.29,11.29,0,0,0-.62,2.45,11.36,11.36,0,0,1-.85,2.48,10.68,10.68,0,0,1-3.14,3.85,12.69,12.69,0,0,1-9.8,2.21c-.27,0-.21.52,0,.62a11.14,11.14,0,0,0,12-1.1,12.6,12.6,0,0,0,3.49-4.22,13.28,13.28,0,0,0,1.05-3c.07-.32.15-.64.22-1a18.22,18.22,0,0,0,1.71,1.29,21.43,21.43,0,0,0,4.78,2.35c-.06.18-.11.37-.15.54a33.25,33.25,0,0,1-2.19,6.77,22.56,22.56,0,0,1-1.93,3.37c-2.61,3.73-5.88,5.27-10,6.48a.16.16,0,0,0-.05.22,2.29,2.29,0,0,0,1.11.76,4.86,4.86,0,0,0,1,.18c3.46.18,7-2.08,9-4.73a30.64,30.64,0,0,0,5.7-12.52c0-.11,0-.22.05-.33a25.58,25.58,0,0,0,10.24.11c2.88-.54,6.51-1.79,8.07-4.47C201.13,284.3,199.26,283.39,198.47,284ZM150,260a21,21,0,0,0,2.89.81c.07,0,.08-.13,0-.16-3.23-2.16-6.74-4.05-9.51-6.81a18.06,18.06,0,0,1-3-3.82h0v0a19.47,19.47,0,0,0-1.12,1.67,19.29,19.29,0,0,0,2.89,3.36,25,25,0,0,0,5.06,3.59A24,24,0,0,0,150,260Zm64.54-68.57a7.07,7.07,0,0,0-3,1.42,16.82,16.82,0,0,1-10.44,2.72,18.55,18.55,0,0,1-11.75-5.46c-.4-.4-.62.39-.41.69a17.79,17.79,0,0,0,16,7.32.87.87,0,0,0-.09.11,29.73,29.73,0,0,0-2.45,3.14,27.81,27.81,0,0,0-3.49,7.11,15,15,0,0,0-.66,8.48,8,8,0,0,0,1,2.17,23.9,23.9,0,0,0-5-.27c-3.57.14-7.92.62-10.93,2.84A12.94,12.94,0,0,0,182,220c-3.22-3.52-8.25-5.92-13.05-4.68-.38.1-.31,1,.09,1,3.65.18,7.58,1.35,10,4.22a13.1,13.1,0,0,1,2.62,5,12.45,12.45,0,0,1,.44,2.72,12.17,12.17,0,0,0,.55,4.41c.19.43,1,1,1.49.56a3,3,0,0,0,.59-.67,5.21,5.21,0,0,0,.43-1,7.88,7.88,0,0,0,.34-2.26,13.84,13.84,0,0,0-.47-3.38,15,15,0,0,0-.8-2.31,16.23,16.23,0,0,1,4.39-1.85,29.22,29.22,0,0,1,5.75-.75,20.37,20.37,0,0,1,11.33,2.81c.31.18.31-.37.22-.52a7.31,7.31,0,0,0-1.71-2,1.22,1.22,0,0,0-.49-.63c-2.36-1.23-3.44-4-3.43-6.51a19.12,19.12,0,0,1,1.65-7,31.65,31.65,0,0,1,3.17-5.76c.67-1,1.37-1.93,2.1-2.86.21-.28.49-.57.75-.89.32-.08.63-.17.94-.27a19.49,19.49,0,0,0,3.92-1.71c1.14-.66,3-1.65,2.68-3.22C215.43,191.87,215.07,191.34,214.51,191.39Zm-63,93.29A5.47,5.47,0,0,1,149,286a12.28,12.28,0,0,1-2.84.29c-.54,0-1-.12-1.55-.17l-.49-.08h0c-.23.51-.43,1-.61,1.5a9.48,9.48,0,0,0,6.56-.83,4.31,4.31,0,0,0,1.11-.88,2.52,2.52,0,0,0,.39-.59,2.09,2.09,0,0,0,.19-.69C151.71,284.52,151.61,284.6,151.53,284.68Zm89.25-100.84a27.86,27.86,0,0,0-5.13-2.16c-.75-.25-1.52-.45-2.29-.63a10.79,10.79,0,0,0,3.6-3.84,8.13,8.13,0,0,0-.93-9.53c-.49-.56-.89.13-.72.63a9.71,9.71,0,0,1-1.46,8.38c-1.82,2.54-5,3.87-8,4.36a25.32,25.32,0,0,1-10.71-.61,21.87,21.87,0,0,1-4-1.52c-1.26-.63-2.45-1.72-3.77-2.17-.11,0-.14.19-.1.25,1.81,3.11,6.31,5,9.64,6a23.08,23.08,0,0,0,11.23.26,17.61,17.61,0,0,0,2.18-.67,21.69,21.69,0,0,0,2.08.66c.85.27,1.71.55,2.55.85a21.84,21.84,0,0,1,4.87,2.4,19.78,19.78,0,0,1,3.26,2.72,38.56,38.56,0,0,1,3.08,4c.14.19.56.37.67,0,.68-2.07-.89-4.67-2.11-6.16A14,14,0,0,0,240.78,183.84Zm55-2.47a8.46,8.46,0,0,0-1.52-1.75,12.7,12.7,0,0,0-2.14-1.32,13.63,13.63,0,0,0-4.84-1.53,14.69,14.69,0,0,0-5.58.53,11.3,11.3,0,0,0-3.87-4.13l0-.08c.11-.26.21-.53.31-.8a12.64,12.64,0,0,0,.83-4.51,17.77,17.77,0,0,0-.44-3.6c-.51-2.21-1.55-4.31-3.5-5.36-.25-.13-.29.43-.19.55a9.28,9.28,0,0,1,1.8,4,15,15,0,0,1,.06,4A15.34,15.34,0,0,1,276,172l-.2-.12a25.13,25.13,0,0,0-9.24-2.94,41.47,41.47,0,0,0-8.91,0,6.49,6.49,0,0,0,.87-2.64,7.4,7.4,0,0,0-2.31-5.88c-.44-.39-.64.41-.41.71a5.64,5.64,0,0,1,.86,2.29,5.9,5.9,0,0,1,0,2.51,8.35,8.35,0,0,1-.87,2.07,9.33,9.33,0,0,0-.64,1.21,20.58,20.58,0,0,0-3.4.73c-1.36.43-2.91,1-3.7,2.28-.19.32.08,1.16.57,1a34.67,34.67,0,0,1,4.67-1.37c1.36-.24,2.75-.37,4.12-.5a42.77,42.77,0,0,1,9.19.07,25.49,25.49,0,0,1,7.4,2.11,18.63,18.63,0,0,1,3.44,2.1c.91.71,1.71,1.54,2.59,2.29a12.11,12.11,0,0,0-2.5,1.48c-.6.47.48,1.56,1.08,1.23a15,15,0,0,1,8.19-2.07,13.93,13.93,0,0,1,5,1.15,32.26,32.26,0,0,1,3.8,2.15C295.9,182,295.9,181.51,295.81,181.37Z" style="opacity:0.1"></path></g><g id="freepik--brain-side-1--inject-205"><path d="M345.77,197.76c-2.58-15.06-13.85-11.51-13.85-11.51s-6.27-11.92-16.18-9.34c-7.66-8.7-18.29-6.15-20.23-1.63-8.38-6.75-19-.31-20.29,3.24-12.49-5.32-21.58,2.73-23.2,8.45-14.17-2.33-22.76,9.87-23.46,13.76-15.51,0-18.09,12.92-18.09,12.92s-7.09,0-12.24,8.68-2.58,13.79-2.58,13.79-12.24,3-11.28,23.9c-9.34,8.7-5.47,21.9-5.47,21.9s-11.6,13.92,2.25,28.23c-2.57,15.26,7.09,21.5,14.5,23.38,1.61,11.21,16.75,12.18,22.55,9.28,5.8,6.76,16.43,4.83,21.58,2.25A14.5,14.5,0,0,0,260,342.81c6.18,5.8,16.17-1.61,19.06-6.77,10,7.09,19.33-7.73,19.33-7.73s13.53.33,19-15.14c8.89,5.14,18-6,18.68-10.07,7.74.73,11-15.43,11-15.43,11.27-2.2,10.95-19.6,10.95-19.6,11.28-6.51,10-20.88,7.41-24.45,6.44-5.51,1.61-19.36-5.48-21.29C363.92,209.23,354.79,195,345.77,197.76Z" style="fill:#0D6EFD"></path><path d="M345.77,197.76c-2.58-15.06-13.85-11.51-13.85-11.51s-6.27-11.92-16.18-9.34c-7.66-8.7-18.29-6.15-20.23-1.63-8.38-6.75-19-.31-20.29,3.24-12.49-5.32-21.58,2.73-23.2,8.45-14.17-2.33-22.76,9.87-23.46,13.76-15.51,0-18.09,12.92-18.09,12.92s-7.09,0-12.24,8.68-2.58,13.79-2.58,13.79-12.24,3-11.28,23.9c-9.34,8.7-5.47,21.9-5.47,21.9s-11.6,13.92,2.25,28.23c-2.57,15.26,7.09,21.5,14.5,23.38,1.61,11.21,16.75,12.18,22.55,9.28,5.8,6.76,16.43,4.83,21.58,2.25A14.5,14.5,0,0,0,260,342.81c6.18,5.8,16.17-1.61,19.06-6.77,10,7.09,19.33-7.73,19.33-7.73s13.53.33,19-15.14c8.89,5.14,18-6,18.68-10.07,7.74.73,11-15.43,11-15.43,11.27-2.2,10.95-19.6,10.95-19.6,11.28-6.51,10-20.88,7.41-24.45,6.44-5.51,1.61-19.36-5.48-21.29C363.92,209.23,354.79,195,345.77,197.76Z" style="fill:#fff;opacity:0.6000000000000001"></path><path d="M303.12,174.56a2.12,2.12,0,0,0-1.71,1.08,2.47,2.47,0,0,0,.35,1.9c1,2.07,1.45,4.52,4,5.1,1.07.25,2.18.24,3.23.52,2.35.61,4.11,2.51,5.82,4.23a4.06,4.06,0,0,0,2.81,1.55c.56-2-.43-4.07-1.45-5.88C313.35,178.08,309.45,173.39,303.12,174.56Zm-18.62,4.73c2.27.63,4.68.76,6.83,1.7,1.71.75,3.18,2,4.87,2.76.23.11.53.21.72,0s.14-.42.1-.64a10.56,10.56,0,0,0-4.18-6.36c-1.75-1.25-5.23-2.73-7.47-2.28C282.62,175.06,281.16,178.37,284.5,179.29ZM276.11,183a14.83,14.83,0,0,0-9.11-3.32c-1.87,0-7.26,1.34-7.27,3.72,0,1,1.18,1.51,2.17,1.66,3.26.49,6.61-.21,9.87.33a24.35,24.35,0,0,1,5.76,1.91.9.9,0,0,0,.64.09c.33-.13.37-.58.3-.93A6.21,6.21,0,0,0,276.11,183ZM256.61,206a21,21,0,0,1,7.77,1.33c.18-1.49-1.49-2.45-2.89-3l-7.07-2.73a9.47,9.47,0,0,1-3.73-2.15,3.23,3.23,0,0,1-.49-4c.5-.65,1.37-1.1,1.5-1.91s-.75-1.67-1.59-2.1a11.32,11.32,0,0,0-8.43-.9c-3.88,1.23-7.22,5.7-5,9.7A22.68,22.68,0,0,0,240,204.1a17.45,17.45,0,0,1,3,4.74c1.23,2.86,2.63,7.07,5.94,8.16a2.79,2.79,0,0,0,2.93-.62c1.76-2-1.12-5.1-.38-7.64C252,206.74,254.52,206.05,256.61,206Zm-36.82.18c-1,.72-2,1.47-2.93,2.26a5,5,0,0,0-1.45,1.64,1.84,1.84,0,0,0,.23,2.07,3,3,0,0,0,2.27.48,18.73,18.73,0,0,1,12.33,4.07,11,11,0,0,0,2.69,1.88.65.65,0,0,0,.51,0c.21-.1.26-.39.27-.63a14.55,14.55,0,0,0-4-10.38C226.54,204.17,223.8,203.35,219.79,206.2Zm-5.33,26.92a7.17,7.17,0,0,0-3.05,1c-2.93,1.27-6.62.76-8.59-1.89a12,12,0,0,1-1.81-4.06,1.68,1.68,0,0,0-.62-1.1c-1.68-1-1.56,3.88-1.5,4.51a12,12,0,0,0,4.44,8.7c2.28,1.8,5.5,1.89,8.32,1.2a9,9,0,0,0,3.83-1.78,5.06,5.06,0,0,0,1.26-1.61,4,4,0,0,0,.43-2.13A3.09,3.09,0,0,0,214.46,233.12ZM334.1,193.57a11.5,11.5,0,0,1,5.56,4.26c.41.59,1,1.31,1.67,1.16s.85-.74.95-1.3a9,9,0,0,0-2-6.75c-1.39-1.67-8.82-3.84-8.8,0C331.51,192.41,333,193.17,334.1,193.57Zm21.35,15.1c-.45-.83-1.64-2.51-2.82-2.16s-.93,1.73-1.1,2.67a2,2,0,0,1-1.83,1.43c-1.48.11-3.26-.72-4.75-.92a5.14,5.14,0,0,0-2.31.05,2,2,0,0,0-1.46,1.63c-.06.95.77,1.69,1.52,2.28,4,3.1,8.13,6.33,10.36,10.87,1.95,4,3.69-1.17,4.14-3.13A19.52,19.52,0,0,0,355.45,208.67Zm-20.14,11.44c-.7.85-.64,2.09-1.11,3.09-.92,2-3.48,2.38-5.64,2.38a42,42,0,0,1-10.4-1.3c-.56.8.37,1.78,1.21,2.28A39,39,0,0,0,338,231.94a10.92,10.92,0,0,0,3.82-.4,4.49,4.49,0,0,0,2.82-2.46C345.9,225.86,338.62,216.12,335.31,220.11Zm-24.72-13.43c-2.25-1.9-8.58-6.25-11.64-4.11-2,1.43-.64,2.86,1.33,4a33.9,33.9,0,0,0,4.55,2,37.22,37.22,0,0,1,5.4,2.36c.66.39,4.46,3.35,3.72.7A10.21,10.21,0,0,0,310.59,206.68ZM273.21,226a2.42,2.42,0,0,0-2.59,1.66,14.39,14.39,0,0,0-.57,3.22V231a8.74,8.74,0,0,1-6.45,6.85c-.69.16-1.53.35-1.72,1s.53,1.35,1.25,1.48c2.79.53,6,.69,8.56-.7,4.21-2.23,5.89-8.27,3.13-12.24A3.13,3.13,0,0,0,273.21,226Zm-26.48,36.55a5.13,5.13,0,0,1-2.57-1.56c-1.28-1.69-.19-6.48-3.11-6.65-2.2-.13-4.89,3.22-5.61,5a6.55,6.55,0,0,0,1.43,7.26,8.06,8.06,0,0,0,1.86,1.19,11.3,11.3,0,0,0,10.4-.15,3,3,0,0,0,1.16-1.09,2.35,2.35,0,0,0-.8-2.71A8.16,8.16,0,0,0,246.73,262.57Zm-52.36,45.71c-.7-.54-1.52-.9-2.23-1.41a6.94,6.94,0,0,1-2.75-5.42,9.47,9.47,0,0,1,2-5.86c1.12-1.49,2.68-3,2.45-4.83-.22-1.69-1.92-2.79-3.54-3.35-5-1.73-9.12.29-10.42,5.63a14.24,14.24,0,0,0,15.7,17.47A2.69,2.69,0,0,0,194.37,308.28Zm-.69-46.17c-.49,3.81,2.27,7.73,1,11.35-.11.31-.22.73.05.92a.69.69,0,0,0,.37.08,5.08,5.08,0,0,0,3.87-2.23,9.7,9.7,0,0,0,.11-11.4C197.31,258.49,194.07,259.1,193.68,262.11ZM296,247.23c-2.23,2.18-5,2.27-7.94,2.07-2.32-.15-4.7-.67-6.76-.7-1.05,0-2.43.24-2.56,1.28-.1.74.55,1.35,1.14,1.81,5.24,4.1,12.29,6.93,17,.17C297.89,250.39,299.2,244.05,296,247.23Z" style="fill:#fff;opacity:0.2"></path><path d="M208.75,318.72a8.82,8.82,0,0,0,3.67-6.09,25.9,25.9,0,0,0-.12-7.3c-1,.15-3.08.51-4.08.66-.79,5.28-5.79,9.28-11.08,10s-10.66-1.25-15.06-4.28a12.22,12.22,0,0,0-1-.66c-2,14.58,7.35,20.62,14.61,22.46,1.24,8.6,10.43,11.16,17.26,10.58a3.33,3.33,0,0,1-1.09-1.18,6.42,6.42,0,0,1-.58-3.52,14.6,14.6,0,0,1,13.36-13.07,19.69,19.69,0,0,1-3.66-11.18C217.32,317.65,212.92,320.12,208.75,318.72Zm29.73-34.08c1.09-1.35,4.08-5.24,3.71-7.13-.3-1.58-5.57-1.49-7.28-2.23a6.69,6.69,0,0,1-9.68,7.67,27.81,27.81,0,0,1-1.58,8.37c-.83,2.34-2,4.86-1.13,7.18a6.47,6.47,0,0,0,1.65,2.36c4.28,4.19,10.79,4.83,16.76,5.23-2.7-.44-5.5-1.14-7.47-3a10.31,10.31,0,0,1-2.85-6.58,30.77,30.77,0,0,1,.52-7.29A12.42,12.42,0,0,0,238.48,284.64Zm39.2-67.75c1.16,1.25,3.18,1.47,4.22,2.83-1.24-3.44-1.67-7.59.58-10.48a8.79,8.79,0,0,1,5.57-3.05,20.1,20.1,0,0,1,6.47.23,4.21,4.21,0,0,1-1.59-3.14c0-7.35,10.7-3.26,14.34-2.5a23.17,23.17,0,0,0-16.62-3.94,24,24,0,0,1-20.26,8.37,26.53,26.53,0,0,1,6,9.21A7.18,7.18,0,0,0,277.68,216.89Zm-16.14,72.83c.41,3.9,1,7.61.65,11.58a20.53,20.53,0,0,1-1.2,5.76c-1.37,3.48-4.08,6.24-6.71,8.89a8.26,8.26,0,0,1-3.9,2.63,12.85,12.85,0,0,0,2.06,8.25c2.55,3.48,7.13,4.66,11.34,5.61a10.36,10.36,0,0,1-5.52-3.15,6.45,6.45,0,0,1-1.39-6c.94-2.86,4-4.39,5.78-6.84a8.35,8.35,0,0,0,1.39-6.36,36.17,36.17,0,0,1,6.06.33,27.39,27.39,0,0,0-1.82-13C267.52,295.45,264.54,287.86,261.54,289.72Zm-40.13-41.45a11.19,11.19,0,0,0,2.92,4.21c2.25,2.33,4.43,3.42,6.26,3.61s2.35-2,2.4-3.81c0-.17-3.44-2.41-3.77-2.71a20.38,20.38,0,0,1-3.06-3.5c-1.9-2.73-2.46-5.64-3.57-8.61a15.36,15.36,0,0,1-7.76,8.1,17.05,17.05,0,0,1-12.08.58A17.09,17.09,0,0,0,221.41,248.27Zm59.74,76.2c-.28-1.25-.31-2.66-1.16-3.63a38,38,0,0,1,1.25,7.83c.05,2.41-.92,5.29-1.29,7.93,6.4,3.77,12.42-1.09,15.76-4.81a21.87,21.87,0,0,1-8.06-1.11C284.7,329.58,281.86,327.66,281.15,324.47ZM350.89,274c-1.45-2.12-3.83-3.65-5.8-5.31,2.63,2.22,3,8.16,3.35,11.28.07.59.15,4.21.23,7.24a11.42,11.42,0,0,0,5.77-4.82c-.23-.85-.49-1.68-.8-2.5A28,28,0,0,0,350.89,274Zm13-49.16a9.34,9.34,0,0,0-3.26-2.25,14.59,14.59,0,0,1-1.89,5.19,8.21,8.21,0,0,1-6.15,4,8.25,8.25,0,0,0-3.07.33,6.58,6.58,0,0,0-1.73,1.52A11.4,11.4,0,0,1,342,236.9l2.88,13.45a20,20,0,0,1,11.21,2.85c-1.87-1.7-3.84-3.57-4.32-6-.64-3.28,1.55-6.71.64-9.93,3.2-1,6.45-2.23,8.82-4.59A10.24,10.24,0,0,0,363.9,224.84Zm-42.35,67.9a5,5,0,0,1-1.83-2.1,7.64,7.64,0,0,1-.36-3c0-1.9.07-3.81.1-5.71,0-2.38-.11-5.16-2.07-6.52a11.84,11.84,0,0,0,2.28-5.48,17.58,17.58,0,0,1,1.82-5.68c1.05-1.71,3-3,5-2.69a6.35,6.35,0,0,1-5.19-6.89,11.21,11.21,0,0,1,2.11-4.48c.41-.64,1.19-3.53,1.46-3.75a31.8,31.8,0,0,1-9,5.23,39.45,39.45,0,0,1-2,21,7,7,0,0,0-.5,1.59,7.85,7.85,0,0,0,.11,2.05,25.38,25.38,0,0,1-.59,9.7,8.52,8.52,0,0,0-.48,3.69c.39,2.06,2.4,3.34,4.29,4.24a15.85,15.85,0,0,0,5.93,1.75,7.16,7.16,0,0,0,5.67-2.05A7.59,7.59,0,0,1,321.55,292.74Zm-46.95-6.8c-1.48-2.72-.64-6.05-.47-9.15a20.21,20.21,0,0,0-5.83-15.21,29.58,29.58,0,0,0,2.47-5.87c.52-1.85.86-3.82,2-5.36a21.8,21.8,0,0,1,1.52-1.67c.56-.6,1.06-1.24,1.61-1.85,2.92-3.19,10-6.8,14.44-4.67A24.83,24.83,0,0,0,279,239.65a6.48,6.48,0,0,0-2,.26,8,8,0,0,0-2.59,1.64c-2.86,2.34-6.38,4.7-10,3.81a49.29,49.29,0,0,1-2.37,16.22,3.88,3.88,0,0,0-.3,1.89,4.65,4.65,0,0,0,1.31,2c3.44,3.92,3.7,9.61,3.76,14.82a11.52,11.52,0,0,0,.36,3.31c1,3.26,4.58,5,7.93,5.63a24.44,24.44,0,0,0,7.68.21C279.69,289.85,276.12,288.73,274.6,285.94Zm25.16,13.55c-1.94.58-3.89.08-5.77.93a4.12,4.12,0,0,0-1.16,1c-2.14,2.21-5.5,2.53-8.57,2.73.06,1.8.11,3.6.17,5.4,0,.23,8.13-2.78,8.86-3.26,1.44-.95,2.11-2,3.73-2.4a14.81,14.81,0,0,1,5.81.37,8.48,8.48,0,0,1,5.67,3.92,12.33,12.33,0,0,1,1.06,3.26c1-5.45-.87-10.63-3.37-15.39A18.93,18.93,0,0,1,299.76,299.49Z" style="fill:#0D6EFD;opacity:0.30000000000000004"></path><path d="M287.53,186.82c3.66.21,8.46,2.52,9.54,6a25.11,25.11,0,0,1,20.17,10.65,1.53,1.53,0,0,0,1.81.87,19.06,19.06,0,0,1,11.7,2.68,34.47,34.47,0,0,0-13.12-.07,4.31,4.31,0,0,1-5.09-1.88,27.81,27.81,0,0,0-16.25-7.78c-2.48-.29-5.26.6-5.41-2.36C290.83,193.83,292,190.79,287.53,186.82Z" style="fill:#0D6EFD;opacity:0.30000000000000004"></path><path d="M322.48,192.4c0,.1.13.07.12,0a63.34,63.34,0,0,0-.91-6.47c1.05.85,2.09,1.72,3.06,2.65a15.55,15.55,0,0,1,3.61,4.69c.21.47.61,0,.48-.39a18.26,18.26,0,0,0-1.32-2.92,22.93,22.93,0,0,0-4-5c-.7-.68-1.54-1.43-2.14-2a2,2,0,0,0-.62-.4,31.8,31.8,0,0,0-2.84-5.91,11.6,11.6,0,0,0-2.13.33h0l.45.71A72.24,72.24,0,0,1,322.48,192.4ZM197.24,243.28a23.17,23.17,0,0,0,12.4,4.63,12.72,12.72,0,0,0,11.29-4.43,11.54,11.54,0,0,0,1.6-2.72,18.39,18.39,0,0,0,3.68,7.79c1.4,1.67,3.69,3.78,6,4-1.86,1.88-3.2,4.63-2.47,7.21.11.42,1,1.13,1.33.53.79-1.32,1.17-2.81,2-4.1a10.91,10.91,0,0,1,2.39-2.59A10.13,10.13,0,0,1,239,251.9a9.06,9.06,0,0,1,1.71-.33c.3,0,.59-.08.88-.13a6.28,6.28,0,0,0,.94-.27c.35-.12.3-.76,0-.92a5.21,5.21,0,0,0-2.61-.76,10.32,10.32,0,0,0-2.35.2,10.55,10.55,0,0,0-4.2,1.87.39.39,0,0,0-.08-.1c-1.91-1.27-3.9-2.41-5.27-4.32a17.7,17.7,0,0,1-2.92-8c-.35-2.74-.21-5.85,1.35-8.23,1.31-2,3.33-3.49,4.52-5.53.15-.26.11-1-.34-.91a11.9,11.9,0,0,0-7.89,5.93.36.36,0,0,0,0,.09l-.12-.1a8.86,8.86,0,0,1-.88-1,9.28,9.28,0,0,1-1.39-2.45,11,11,0,0,1-.72-3.54,9.1,9.1,0,0,1,.28-3.12c.13-.38-.33-1.21-.6-.62a16.6,16.6,0,0,0-.85,1.75,9.91,9.91,0,0,0-.37,1.7,9.52,9.52,0,0,0,.35,4.27c.63,2,2.18,3.64,2.59,5.78a7,7,0,0,1-.7,4.57c-.36.66-.75,1.3-1.12,2a12,12,0,0,1-1.56,2.18c-2.53,2.77-6.06,3.28-9.62,2.66a20.14,20.14,0,0,1-9.18-3.89,12,12,0,0,1-3.28-4.93c.08.22.14.35.14.35a10,10,0,0,0-2.32,1A12.94,12.94,0,0,0,197.24,243.28ZM231.66,204a41.31,41.31,0,0,1,5.38,9.34c1.31,2.9,2.88,6,5.58,7.82a11,11,0,0,0-1.19,3.32,13.53,13.53,0,0,0-.19,5.11,13.68,13.68,0,0,0,1.55,4.43,14.46,14.46,0,0,0,1.71,2.34,4.88,4.88,0,0,0,2,1.62c.34.11.33-.48.24-.65-.65-1.25-1.58-2.27-2.14-3.58a12.84,12.84,0,0,1-1.12-4.29,13.49,13.49,0,0,1,.37-4.2,13.85,13.85,0,0,1,.71-2c.14-.32.29-.58.41-.84a8.79,8.79,0,0,0,2.36.59c2,.19,3.27-.7,4.7-2,.07-.06.09-.33-.05-.25-1.6.87-4,.51-5.62-.21a9.55,9.55,0,0,1-3.8-3.66c-2-3-3.09-6.56-5-9.66a27.22,27.22,0,0,0-7.18-7.6c-.39-.28-.77-.55-1.17-.82a8.51,8.51,0,0,0-.66,1.84A29.44,29.44,0,0,1,231.66,204Zm-21.83,21.11c.2.48.63.19.54-.24a37.55,37.55,0,0,1-.39-4.62,24.4,24.4,0,0,1,.11-4.36c.08-.76.2-1.51.35-2.25a9.37,9.37,0,0,0-1.94.3c-.06.38-.13.74-.17,1.12a22.15,22.15,0,0,0-.05,4.46A19.46,19.46,0,0,0,209.83,225.12Zm46.39-36.41c2.83,1.46,6,3,7.88,5.74.19.3.37-.18.29-.36A10.88,10.88,0,0,0,261.5,190a24.13,24.13,0,0,0-5.06-3.69,29.28,29.28,0,0,0-3.49-1.53A10.57,10.57,0,0,0,252,187h0A25.64,25.64,0,0,1,256.22,188.71Zm42.27-10a26.42,26.42,0,0,1,1.81,3.19,12.27,12.27,0,0,1,.77,1.74c.21.67.35,1.36.58,2,.08.25.29.08.3-.11a7.2,7.2,0,0,0-.17-1.79c-.13-.7-.22-1.42-.41-2.11a15,15,0,0,0-2-4.28,19.51,19.51,0,0,0-2.58-3.08c-.12-.12-.26-.21-.38-.33a5.2,5.2,0,0,0-.89,1.32l-.07-.05c.27.23.54.45.79.7A17.27,17.27,0,0,1,298.49,178.71ZM278.63,181a20.4,20.4,0,0,1,4.39,6.32c.09.2.23-.08.22-.18a12.12,12.12,0,0,0-4-8,17.3,17.3,0,0,0-3-2.23,5.22,5.22,0,0,0-1.06,1.61h0A17.16,17.16,0,0,1,278.63,181Zm-18.22,18.6a21.17,21.17,0,0,0-4,0c-.27,0-.26.59,0,.62a30.79,30.79,0,0,1,6.88,1.64,19.9,19.9,0,0,1,6.57,3.79,17.27,17.27,0,0,1,4,5.45,16.47,16.47,0,0,1,1.05,3,2.3,2.3,0,0,1,.08,1.53,1.71,1.71,0,0,1-1.3.93,19.91,19.91,0,0,0-2.49.67c-1.75.67-4.05,1.8-4.79,3.63,0,.1,0,.43.14.42a8.19,8.19,0,0,0,2.55-1,15.61,15.61,0,0,1,2.47-.92,15.25,15.25,0,0,1,5.46-.55,13.57,13.57,0,0,1,4.55,1.16c.84.37,1.63.85,2.47,1.22a20.69,20.69,0,0,1,2.7,1.26c.11.06.16-.18.12-.24a16.2,16.2,0,0,0-1.84-2.81,8.26,8.26,0,0,0-2.75-1.71c-1-.43-2.19-.57-3.13-1.08a2.93,2.93,0,0,1-1.27-2.06,18.91,18.91,0,0,0-1.11-3.44,17.4,17.4,0,0,0-3-4.64,18.58,18.58,0,0,0,5.5-.75,42.94,42.94,0,0,0,4.12-1.35c.65,0,1.3-.13,2-.14a15,15,0,0,1,1.89.1,13.35,13.35,0,0,1,4.07,1.05,23.66,23.66,0,0,1,6.06,4.27s.05,0,.05-.07a9.62,9.62,0,0,0-2.62-3.84,16.31,16.31,0,0,0-7.34-3.48,12.09,12.09,0,0,0,2.61-2.38c.25-.32.44-.88.76-1.12a2.46,2.46,0,0,1,1.34-.21,35.07,35.07,0,0,1,6.48.34,28.27,28.27,0,0,1,14.74,7.71c2.17,2.14,3.9,4.69,6,6.84.24.23.35-.29.32-.43a13.32,13.32,0,0,0-2-4.62c.6-.11,1.19-.31,1.78-.46a22,22,0,0,1,2.8-.54,20.64,20.64,0,0,1,5.09,0,17.54,17.54,0,0,1,7.16,2.58,24.2,24.2,0,0,1,3.29,2.78c.18.16.23-.22.19-.32a10.54,10.54,0,0,0-3.08-4.1,19.85,19.85,0,0,1,2.91-1.47,11.84,11.84,0,0,1,4.29-.73,14.82,14.82,0,0,1,4.12.69c.64.19,1.28.42,1.9.67a4.41,4.41,0,0,0,1,.4,2.8,2.8,0,0,1,.74.06c.15,0,.15-.28.09-.34a7.08,7.08,0,0,0-1.4-1.44,12.83,12.83,0,0,0-2.25-1.21,13.53,13.53,0,0,0-5.06-1,13.1,13.1,0,0,0-4.56.79,10.77,10.77,0,0,0-2.15,1,5.24,5.24,0,0,0-1.44,1.32,15.81,15.81,0,0,0-4.34-1.77,19.58,19.58,0,0,0-6.74-.34,27.19,27.19,0,0,0-3.12.57,7.8,7.8,0,0,0-2.72,1,32.18,32.18,0,0,0-17.35-9.79,28.83,28.83,0,0,0-4.91-.55c-.52,0-1.75.23-2-.41a5.85,5.85,0,0,1-.09-1.73,9.73,9.73,0,0,0-.22-1.78,4.62,4.62,0,0,0-1.7-2.86c-.21-.15-.22.34-.18.43a6.05,6.05,0,0,1,.26,5.58,11.45,11.45,0,0,1-3.61,4.29,21.32,21.32,0,0,1-5.46,2.68,24.83,24.83,0,0,1-6.4,1.6,7.89,7.89,0,0,1-5-1,19.28,19.28,0,0,0-5.2-2.43A22.63,22.63,0,0,0,260.41,199.62Zm-46,126.11a23.87,23.87,0,0,1-12,7.13,27.63,27.63,0,0,1-6.91.63l.12,0a11,11,0,0,0,.56,2.23,26.75,26.75,0,0,0,7-.81c4.78-1.27,9.31-4.13,11.48-8.68C214.79,326.1,214.69,325.45,214.42,325.73ZM199.9,279a13.47,13.47,0,0,1,3.75-4.23,12.9,12.9,0,0,1,5.06-2.21c2.24-.46,4.51-.08,6.77-.13.21,0,.23-.4.1-.51-2.6-2-6.23-2.22-9.52-1.34,0-.15.05-.29.07-.43a26.36,26.36,0,0,0,.32-3.42,12.68,12.68,0,0,0-1.1-5.77,10,10,0,0,0-4.15-4.35c-1.21-.69-3.11-1.65-4.51-.95-.19.09-.21.56,0,.62.68.2,1.4.21,2.08.42a5.87,5.87,0,0,1,2.2,1.18c1.17,1.07,1.71,2.92,2.09,4.42a17.13,17.13,0,0,1,.34,4.95c-.06.85-.16,1.7-.28,2.55-.06.42-.13.84-.17,1.26a4.41,4.41,0,0,0,0,.71,13.92,13.92,0,0,0-1.8,1.1,14.44,14.44,0,0,0-4.26,4.93,11.19,11.19,0,0,0-1.39,3.87,11.26,11.26,0,0,0-8,1.25c-.11.06-.13.44,0,.42a25.48,25.48,0,0,1,4.94,0,16.55,16.55,0,0,1,7.65,2.44c.64.43,1.24.9,1.88,1.33a17.37,17.37,0,0,0,1.91,1.3c.39.19.55-.34.51-.61a5.14,5.14,0,0,0-1.71-2.68,12,12,0,0,0-1.89-1.34,16.41,16.41,0,0,0-2.37-1.19c.11-.39.2-.79.31-1.12A14.78,14.78,0,0,1,199.9,279Zm154.77-27.31c-2.22-1.91-5.59-3.34-8.59-2.7.4-4,.08-8.26-2.19-11.39a13.05,13.05,0,0,0,5.25-2.1,8.28,8.28,0,0,0,2.15-2.35,11,11,0,0,0,2-.09c4.57-.77,8.19-5.21,8.46-10a7.35,7.35,0,0,0-1.82-.81,10.54,10.54,0,0,1-2.12,5.45,9.77,9.77,0,0,1-5.88,3.5,5.54,5.54,0,0,0-1.56-4.95c-.23-.22-.3.23-.22.36,2.23,3.62-2.59,6.59-6.25,7.63a23.87,23.87,0,0,1-11.7-.2,59,59,0,0,1-20.65-9.73c-.45-.32-.53.49-.27.71,7.25,6.17,15.5,12.24,26.1,12.87a32.76,32.76,0,0,0,3.44,0,11.14,11.14,0,0,1,2.46,6.83,33.94,33.94,0,0,1-.38,8.24,17.81,17.81,0,0,1-3.12,7.76,11.05,11.05,0,0,1-2.78,2.72c-.9.56-2.41,1.06-2.94,2,0,.05,0,.15,0,.18.84.57,2.11.11,3.06-.33a13.62,13.62,0,0,1-3.95,8.11,22.53,22.53,0,0,1-4,3.33c-.77.51-1.57,1-2.35,1.45a5.74,5.74,0,0,1-2.7,1c-.12,0-.18.26-.07.31,2.26,1,4.39.07,6.38-1.08a22.19,22.19,0,0,0,5.06-3.88,14,14,0,0,0,3.92-10.54,13.6,13.6,0,0,0,1.6-1.44,18,18,0,0,0,4.2-8.42c.14-.65.28-1.32.41-2a2.28,2.28,0,0,0,.9-.08,8.33,8.33,0,0,1,6.24.35,17.62,17.62,0,0,1,3,1.79c1,.75,2.08,1.54,2.28,2.88,0,.25.28.19.28,0C358.25,254.9,356.22,253.06,354.67,251.72Zm9.68-10.88a12.83,12.83,0,0,0-2.89-1.39,6.52,6.52,0,0,0-1.49-.38c-.56,0-1.1-.06-1.66-.12-.2,0-.21.4,0,.45a7.55,7.55,0,0,1,1.68.67c.45.23.92.41,1.37.63a17.84,17.84,0,0,1,2.79,1.74,13.21,13.21,0,0,1,1.33,1.15,8.41,8.41,0,0,0,1-1.06A16.28,16.28,0,0,0,364.35,240.84Zm-25,36.69c-1,3-1.9,5.9-3.71,8.53a20.71,20.71,0,0,1-6.53,6.11,16.09,16.09,0,0,1-9.12,2.4,7.52,7.52,0,0,1-6.5-4.91,1.37,1.37,0,0,0-.3-.44c.27-.65.54-1.3.76-2a22.1,22.1,0,0,0,.13-12.33,1.14,1.14,0,0,0-.19-.4,26.07,26.07,0,0,0,2-3.46,31.64,31.64,0,0,0,2.83-9.68,12.2,12.2,0,0,0,5.65,1.36,9.74,9.74,0,0,0,3.08-.45,7.34,7.34,0,0,0,2.6-1.77c.2-.19.07-.95-.29-.84-3.52,1.05-7.66,1.42-10.86-.68,0-.41,0-.83,0-1.25a19.67,19.67,0,0,0-.88-5.4,5.76,5.76,0,0,0,1.54-.25,12.34,12.34,0,0,0,2.93-1.46,14.18,14.18,0,0,0,2.82-2.24,8.54,8.54,0,0,0,.94-1.13,7.35,7.35,0,0,0,.92-1.94,8.82,8.82,0,0,0,.56-3.44c0-.28-.47-.95-.67-.39a8.21,8.21,0,0,1-1.22,2.57c-.37.48-.82.87-1.23,1.31a10.17,10.17,0,0,1-1.19,1.08,18.56,18.56,0,0,1-2.83,1.8c-.48.26-1,.5-1.47.71l-.65.26-.32.11-.15,0-.34.06-.14,0-.53-.16a1.77,1.77,0,0,0-.23,0c-2.26-4.38-6.24-7.73-11.54-7.94a1.52,1.52,0,0,0-.21,0,9.73,9.73,0,0,0-.28-1.06c-1-3-3-6.89-6.28-7.85-.16-.05-.18.31-.09.39a14.19,14.19,0,0,1,3.53,4,11.68,11.68,0,0,1,1.14,4.68,15.12,15.12,0,0,1-2.38,8.84,23,23,0,0,1-6.39,6.64,20.35,20.35,0,0,1-9.9,3.53,6.94,6.94,0,0,0-.3-.8,12.62,12.62,0,0,0-5.29-5.39,12.42,12.42,0,0,0-3.53-1.31,7.33,7.33,0,0,0-3.77.3c-.44.14-.27,1,.19,1a9.57,9.57,0,0,1,10.08,6.34,10.65,10.65,0,0,1,.25,5.68,13.9,13.9,0,0,1-1,2.82,31.58,31.58,0,0,1-1.35,3.16c-.25.43.32,1.58.88,1.23a9,9,0,0,0,3.09-2.9,11.07,11.07,0,0,0,1.25-3.45,12.86,12.86,0,0,0,.08-4.59c3.87.72,7.95-1.27,11.08-3.38a22.07,22.07,0,0,0,7.7-8.49,15.48,15.48,0,0,0,1.61-6.62c7.35.58,10.47,8.1,10.48,14.68v.49c-.19,7.46-2.58,15.06-8.1,20.29-.11.11-.11.62.12.5a10.31,10.31,0,0,0,2.31-1.29,19.06,19.06,0,0,0,2.21-2.28c.06-.07.11-.15.17-.23.71,6.48-1.6,13.81-6.45,18.11-5.43,4.81-12.95,5.25-19.49,2.62-.45-.18-.29.73-.1.89a11.8,11.8,0,0,0,5.33,2.69,10.41,10.41,0,0,1-1.09.79,12.57,12.57,0,0,1-4.86,1.75A17.65,17.65,0,0,1,275.1,301c-.27-.15-.33.51-.14.64a20.27,20.27,0,0,0,9.42,3.78v.1a10.67,10.67,0,0,1-.12,1.69,12,12,0,0,1-.34,1.53c-.07.25-.15.5-.24.74-.18.48-.31,1-.5,1.46-.07.18.12.77.36.49a6.17,6.17,0,0,0,1-1.62,11.84,11.84,0,0,0,.61-1.73,11.47,11.47,0,0,0,.34-1.93c0-.21,0-.43,0-.65a14.17,14.17,0,0,0,1.84-.09,13.75,13.75,0,0,0,5.41-1.87,9.08,9.08,0,0,0,2.91-2.44,14.34,14.34,0,0,0,2.27-.13,19.59,19.59,0,0,0,8.09-3c.37,1.06.93,2.11,1.26,3.07a34.51,34.51,0,0,1,1.33,4.67c.68,3.62.83,7.58-.84,11,0,0,0,.15.05.07,1.84-3.26,3.45-6.57,3.33-10.4a19.88,19.88,0,0,0-1.12-5.86,13.74,13.74,0,0,0-2-4.08,19.69,19.69,0,0,0,3.26-3.81,10.58,10.58,0,0,0,7.29,4.76A17.23,17.23,0,0,0,330,295.18c6-3.33,10.9-10.47,9.94-17.5C339.85,277.37,339.52,277.12,339.38,277.53Zm9-4.06a30.64,30.64,0,0,0-4.18-7.31c-.27-.37-.5.29-.35.53a30.68,30.68,0,0,1,3.77,14.59A34.8,34.8,0,0,1,347,288c0-.21.07-.33.07-.33a10.8,10.8,0,0,0,3-1.05,27.6,27.6,0,0,0,.11-5.3A29,29,0,0,0,348.4,273.47ZM185.86,268.3a12.47,12.47,0,0,0,3.64,4.07c.13.09.18-.2.13-.27-1.69-2.92-3.56-5.64-4.53-8.91a31.42,31.42,0,0,1-.73-3.16,18.27,18.27,0,0,0-1.37,1.43c.18.73.38,1.46.63,2.18A23.19,23.19,0,0,0,185.86,268.3Zm37.53,71.19a22,22,0,0,1-5.18,3.32h0a12.63,12.63,0,0,0,1.14,1.17,10.22,10.22,0,0,0,3.74-3.68C223.61,339.45,223.63,339.26,223.39,339.49Zm75.1-27.68a8.69,8.69,0,0,1-1.07.61,11.92,11.92,0,0,0-1,.75c-.62.54-1.16,1.16-1.8,1.69a17,17,0,0,1-4,2.42,11.91,11.91,0,0,1-8.41.83,6.2,6.2,0,0,1-2.82-1.8c-.69-.79-1.19-1.71-1.86-2.52a15,15,0,0,0-4.15-3.53c-3.41-1.9-7.06-2-10.72-1.42a24,24,0,0,0,1.65-5.56,23.05,23.05,0,0,0-1-12.17,16.92,16.92,0,0,0,3.86-4.86c1.7,2.35,5,3.78,7.54,4.35,3.93.88,8.49.89,12.19-.84,4-1.88,7.05-6.11,8.89-10a19.08,19.08,0,0,0,1.48-4.39,1.89,1.89,0,0,0,.58,0,5.28,5.28,0,0,0,1.22-.46,9.08,9.08,0,0,0,2.18-1.52,19.34,19.34,0,0,0,3.33-4.15c2-3.23,3.19-7.11,2-10.85,0-.11-.13,0-.11.1.78,3.52-1.33,6.86-3.23,9.65a19.35,19.35,0,0,1-2.9,3.48,10.33,10.33,0,0,1-1.7,1.25,8.73,8.73,0,0,1-1.14.58,10.53,10.53,0,0,0-1.41-6.17c-.19-.32-.57-.16-.54.2a20,20,0,0,1-2.26,11c-1.6,2.95-3.83,6.07-6.68,7.92s-6.37,2-9.55,1.63a17.17,17.17,0,0,1-8.91-4.08,19.29,19.29,0,0,0,.45-11.58,16.77,16.77,0,0,0-3.24-6.22,11.94,11.94,0,0,0-2.75-2.51,25.18,25.18,0,0,0,1.93-3.63c1.67-3.89,3.06-10,.91-14.13,3.42.23,7.18-1.09,10.09-2.68a18.74,18.74,0,0,0,3.24-2.14l.38-.08a8.37,8.37,0,0,1,2.18-.23,22.44,22.44,0,0,1,4,.42,20,20,0,0,1,3.65,1.1c1,.41,2.13,1.22,3.24,1a.07.07,0,0,0,0-.06,6.28,6.28,0,0,0-3.06-2.59A21.18,21.18,0,0,0,285,239a18.66,18.66,0,0,0-3.94-.59H281a6.06,6.06,0,0,0,.46-1.26c.81-3.29-.43-6.49-1.63-9.5-.29-.73-1.22-.62-1.05.24.47,2.44,1,5.09.29,7.54s-2.72,3.85-4.85,5.06a21.09,21.09,0,0,1-6.73,2.68,13.32,13.32,0,0,1-8.14-1.2c-.24-.12-.27.38-.18.5a8,8,0,0,0,4.31,3c0,.46,0,.92,0,1.38,0,1.18,0,2.37,0,3.56a23.55,23.55,0,0,1-1.12,6.17,25.69,25.69,0,0,1-6.49,10.31,36,36,0,0,1-10,6.82,12.93,12.93,0,0,1-6.52,1.7,6.41,6.41,0,0,1-5.5-4.57c0-.16-.21-.16-.27,0-.63,1.44.07,2.67.49,4a6.56,6.56,0,0,1-.56,4.16,5.64,5.64,0,0,1-2.81,3,8.32,8.32,0,0,1-3.22.53c-2,0-4.49-.33-5.77-2.07-.4-.55-.79.16-.58.59a5.94,5.94,0,0,0,3,2.84c-.31,1.27-.53,2.56-.87,3.82a31.81,31.81,0,0,1-1.83,5,24.47,24.47,0,0,1-5.25,7.55c-5.09,4.87-12.74,6.59-19,3.11-.28-.16-.3.49-.15.62a13.94,13.94,0,0,0,10.49,3.38,9.51,9.51,0,0,1-.67,1.06,11.64,11.64,0,0,1-3.12,3,19.21,19.21,0,0,1-7.44,3,18.89,18.89,0,0,1-15.09-4.35l0,0c-.07.45-.1.87-.16,1.31,4.12,3.93,9.53,6.34,15.34,5.69a19.75,19.75,0,0,0,8.91-3.28,13.93,13.93,0,0,0,3.27-3.14,11,11,0,0,0,2-3.8,17.8,17.8,0,0,0,6.33-3.06,23.6,23.6,0,0,0,5.7-6.37,9.84,9.84,0,0,1-.5.9,15.6,15.6,0,0,0,1.36,2.17,14.7,14.7,0,0,0,2.05,2.12c-.67,4.36-2.47,8.71-5.81,11.69a13.69,13.69,0,0,1-13.08,3.22c-.83-.25-.63,1.24-.06,1.47a14.72,14.72,0,0,0,13.67-1.64,19.18,19.18,0,0,0,8,15.17,21.93,21.93,0,0,0,11.2,4,20.18,20.18,0,0,0,5.26-.24,12.09,12.09,0,0,0,2.71-.74,15.06,15.06,0,0,0,2.05-1.34c.13-.08.21-.55,0-.52-.83.13-1.78.06-2.62.16s-1.63.22-2.45.31a24.91,24.91,0,0,1-5.18,0,18.43,18.43,0,0,1-9-3.4,17.2,17.2,0,0,1-6.75-15.62,1.22,1.22,0,0,0-.07-.57A21.19,21.19,0,0,0,228,304.55a17.44,17.44,0,0,0,1.55.8,24.87,24.87,0,0,0,8.18,2,26.86,26.86,0,0,0,4.66,0,12.75,12.75,0,0,0,4-1c.39-.16.32-1.1-.15-1.1-5.23.09-10.53.33-15.44-1.8a12.87,12.87,0,0,1-5-3.71,9.89,9.89,0,0,1-1.5-2.57,12.91,12.91,0,0,1-.52-2,33.14,33.14,0,0,0,2-5.58,29.06,29.06,0,0,0,.79-3.47c.14-1,.12-1.38,1.28-1.34a8.85,8.85,0,0,0,5.4-1.56,7.84,7.84,0,0,0,2.41-2.77c.14-.28,1.29-3.09,1-3.26a9.19,9.19,0,0,0,3.75,1c5.37.21,10.84-3.31,14.91-6.5a32.3,32.3,0,0,0,6.39-6.56c3.23,2.22,4.57,7.61,4.72,11.12a16.7,16.7,0,0,1-4,11.67c-5.44,6.13-14.56,6.58-21.54,3-.53-.27-.52.7-.25.93,5.56,4.83,14.17,4.64,20.31,1a26.21,26.21,0,0,1,.7,7.73,21.63,21.63,0,0,1-3.1,9.6,18.66,18.66,0,0,1-22.81,7.32c-.29-.11-.32.5-.14.63a16.64,16.64,0,0,0,13.62,2.14c.09.48.2.95.3,1.35a15,15,0,0,0,5.73,8.59c3.5,2.57,9.36,4.39,13.24,1.59.12-.09.13-.48-.07-.49a38.17,38.17,0,0,1-6.59-.25,12.5,12.5,0,0,1-5.52-2.46,13.06,13.06,0,0,1-3.51-4.62,12.59,12.59,0,0,1-.89-2.68c-.13-.58-.14-1.21-.23-1.82a19.36,19.36,0,0,0,7.08-4.65,19.84,19.84,0,0,0,2.84-3.82c3.64-.17,7.67-.19,10.71,1.89a16.63,16.63,0,0,1,5.81,8.36,26,26,0,0,1,1.22,10.24,40.94,40.94,0,0,1-.83,5.4,10,10,0,0,0,.56-.89,11.16,11.16,0,0,0,1.63,1,22.4,22.4,0,0,0,.91-15.58c.32.08.65.16,1,.22a15,15,0,0,0,9.61-1.41,16,16,0,0,0,4.16-3.34,16.24,16.24,0,0,0,1.44-1.78,4.67,4.67,0,0,0,.7-1.5,12.58,12.58,0,0,1,.27-1.36C298.84,312.09,298.72,311.58,298.49,311.81Z" style="fill:#0D6EFD"></path><path d="M197.24,243.28a23.17,23.17,0,0,0,12.4,4.63,12.72,12.72,0,0,0,11.29-4.43,11.54,11.54,0,0,0,1.6-2.72,18.39,18.39,0,0,0,3.68,7.79c1.4,1.67,3.69,3.78,6,4-1.86,1.88-3.2,4.63-2.47,7.21.11.42,1,1.13,1.33.53.79-1.32,1.17-2.81,2-4.1a10.91,10.91,0,0,1,2.39-2.59A10.13,10.13,0,0,1,239,251.9a9.06,9.06,0,0,1,1.71-.33c.3,0,.59-.08.88-.13a6.28,6.28,0,0,0,.94-.27c.35-.12.3-.76,0-.92a5.21,5.21,0,0,0-2.61-.76,10.32,10.32,0,0,0-2.35.2,10.55,10.55,0,0,0-4.2,1.87.39.39,0,0,0-.08-.1c-1.91-1.27-3.9-2.41-5.27-4.32a17.7,17.7,0,0,1-2.92-8c-.35-2.74-.21-5.85,1.35-8.23,1.31-2,3.33-3.49,4.52-5.53.15-.26.11-1-.34-.91a11.9,11.9,0,0,0-7.89,5.93.36.36,0,0,0,0,.09l-.12-.1a8.86,8.86,0,0,1-.88-1,9.28,9.28,0,0,1-1.39-2.45,11,11,0,0,1-.72-3.54,9.1,9.1,0,0,1,.28-3.12c.13-.38-.33-1.21-.6-.62a16.6,16.6,0,0,0-.85,1.75,9.91,9.91,0,0,0-.37,1.7,9.52,9.52,0,0,0,.35,4.27c.63,2,2.18,3.64,2.59,5.78a7,7,0,0,1-.7,4.57c-.36.66-.75,1.3-1.12,2a12,12,0,0,1-1.56,2.18c-2.53,2.77-6.06,3.28-9.62,2.66a20.14,20.14,0,0,1-9.18-3.89,12,12,0,0,1-3.28-4.93c.08.22.14.35.14.35a10,10,0,0,0-2.32,1A12.94,12.94,0,0,0,197.24,243.28Zm59-54.57c2.83,1.46,6,3,7.88,5.74.19.3.37-.18.29-.36A10.88,10.88,0,0,0,261.5,190a24.13,24.13,0,0,0-5.06-3.69,29.28,29.28,0,0,0-3.49-1.53A10.57,10.57,0,0,0,252,187h0A25.64,25.64,0,0,1,256.22,188.71Zm-46.39,36.41c.2.48.63.19.54-.24a37.55,37.55,0,0,1-.39-4.62,24.4,24.4,0,0,1,.11-4.36c.08-.76.2-1.51.35-2.25a9.37,9.37,0,0,0-1.94.3c-.06.38-.13.74-.17,1.12a22.15,22.15,0,0,0-.05,4.46A19.46,19.46,0,0,0,209.83,225.12ZM231.66,204a41.31,41.31,0,0,1,5.38,9.34c1.31,2.9,2.88,6,5.58,7.82a11,11,0,0,0-1.19,3.32,13.53,13.53,0,0,0-.19,5.11,13.68,13.68,0,0,0,1.55,4.43,14.46,14.46,0,0,0,1.71,2.34,4.88,4.88,0,0,0,2,1.62c.34.11.33-.48.24-.65-.65-1.25-1.58-2.27-2.14-3.58a12.84,12.84,0,0,1-1.12-4.29,13.49,13.49,0,0,1,.37-4.2,13.85,13.85,0,0,1,.71-2c.14-.32.29-.58.41-.84a8.79,8.79,0,0,0,2.36.59c2,.19,3.27-.7,4.7-2,.07-.06.09-.33-.05-.25-1.6.87-4,.51-5.62-.21a9.55,9.55,0,0,1-3.8-3.66c-2-3-3.09-6.56-5-9.66a27.22,27.22,0,0,0-7.18-7.6c-.39-.28-.77-.55-1.17-.82a8.51,8.51,0,0,0-.66,1.84A29.44,29.44,0,0,1,231.66,204Zm28.75-4.39a21.17,21.17,0,0,0-4,0c-.27,0-.26.59,0,.62a30.79,30.79,0,0,1,6.88,1.64,19.9,19.9,0,0,1,6.57,3.79,17.27,17.27,0,0,1,4,5.45,16.47,16.47,0,0,1,1.05,3,2.3,2.3,0,0,1,.08,1.53,1.71,1.71,0,0,1-1.3.93,19.91,19.91,0,0,0-2.49.67c-1.75.67-4.05,1.8-4.79,3.63,0,.1,0,.43.14.42a8.19,8.19,0,0,0,2.55-1,15.61,15.61,0,0,1,2.47-.92,15.25,15.25,0,0,1,5.46-.55,13.57,13.57,0,0,1,4.55,1.16c.84.37,1.63.85,2.47,1.22a20.69,20.69,0,0,1,2.7,1.26c.11.06.16-.18.12-.24a16.2,16.2,0,0,0-1.84-2.81,8.26,8.26,0,0,0-2.75-1.71c-1-.43-2.19-.57-3.13-1.08a2.93,2.93,0,0,1-1.27-2.06,18.91,18.91,0,0,0-1.11-3.44,17.4,17.4,0,0,0-3-4.64,18.58,18.58,0,0,0,5.5-.75,42.94,42.94,0,0,0,4.12-1.35c.65,0,1.3-.13,2-.14a15,15,0,0,1,1.89.1,13.35,13.35,0,0,1,4.07,1.05,23.66,23.66,0,0,1,6.06,4.27s.05,0,.05-.07a9.62,9.62,0,0,0-2.62-3.84,16.31,16.31,0,0,0-7.34-3.48,12.09,12.09,0,0,0,2.61-2.38c.25-.32.44-.88.76-1.12a2.46,2.46,0,0,1,1.34-.21,35.07,35.07,0,0,1,6.48.34,28.27,28.27,0,0,1,14.74,7.71c2.17,2.14,3.9,4.69,6,6.84.24.23.35-.29.32-.43a13.32,13.32,0,0,0-2-4.62c.6-.11,1.19-.31,1.78-.46a22,22,0,0,1,2.8-.54,20.64,20.64,0,0,1,5.09,0,17.54,17.54,0,0,1,7.16,2.58,24.2,24.2,0,0,1,3.29,2.78c.18.16.23-.22.19-.32a10.54,10.54,0,0,0-3.08-4.1,19.85,19.85,0,0,1,2.91-1.47,11.84,11.84,0,0,1,4.29-.73,14.82,14.82,0,0,1,4.12.69c.64.19,1.28.42,1.9.67a4.41,4.41,0,0,0,1,.4,2.8,2.8,0,0,1,.74.06c.15,0,.15-.28.09-.34a7.08,7.08,0,0,0-1.4-1.44,12.83,12.83,0,0,0-2.25-1.21,13.53,13.53,0,0,0-5.06-1,13.1,13.1,0,0,0-4.56.79,10.77,10.77,0,0,0-2.15,1,5.24,5.24,0,0,0-1.44,1.32,15.81,15.81,0,0,0-4.34-1.77,19.58,19.58,0,0,0-6.74-.34,27.19,27.19,0,0,0-3.12.57,7.8,7.8,0,0,0-2.72,1,32.18,32.18,0,0,0-17.35-9.79,28.83,28.83,0,0,0-4.91-.55c-.52,0-1.75.23-2-.41a5.85,5.85,0,0,1-.09-1.73,9.73,9.73,0,0,0-.22-1.78,4.62,4.62,0,0,0-1.7-2.86c-.21-.15-.22.34-.18.43a6.05,6.05,0,0,1,.26,5.58,11.45,11.45,0,0,1-3.61,4.29,21.32,21.32,0,0,1-5.46,2.68,24.83,24.83,0,0,1-6.4,1.6,7.89,7.89,0,0,1-5-1,19.28,19.28,0,0,0-5.2-2.43A22.63,22.63,0,0,0,260.41,199.62Zm62.07-7.22c0,.1.13.07.12,0a63.34,63.34,0,0,0-.91-6.47c1.05.85,2.09,1.72,3.06,2.65a15.55,15.55,0,0,1,3.61,4.69c.21.47.61,0,.48-.39a18.26,18.26,0,0,0-1.32-2.92,22.93,22.93,0,0,0-4-5c-.7-.68-1.54-1.43-2.14-2a2,2,0,0,0-.62-.4,31.8,31.8,0,0,0-2.84-5.91,11.6,11.6,0,0,0-2.13.33h0l.45.71A72.24,72.24,0,0,1,322.48,192.4ZM278.63,181a20.4,20.4,0,0,1,4.39,6.32c.09.2.23-.08.22-.18a12.12,12.12,0,0,0-4-8,17.3,17.3,0,0,0-3-2.23,5.22,5.22,0,0,0-1.06,1.61h0A17.16,17.16,0,0,1,278.63,181Zm19.86-2.31a26.42,26.42,0,0,1,1.81,3.19,12.27,12.27,0,0,1,.77,1.74c.21.67.35,1.36.58,2,.08.25.29.08.3-.11a7.2,7.2,0,0,0-.17-1.79c-.13-.7-.22-1.42-.41-2.11a15,15,0,0,0-2-4.28,19.51,19.51,0,0,0-2.58-3.08c-.12-.12-.26-.21-.38-.33a5.2,5.2,0,0,0-.89,1.32l-.07-.05c.27.23.54.45.79.7A17.27,17.27,0,0,1,298.49,178.71Zm40.89,98.82c-1,3-1.9,5.9-3.71,8.53a20.71,20.71,0,0,1-6.53,6.11,16.09,16.09,0,0,1-9.12,2.4,7.52,7.52,0,0,1-6.5-4.91,1.37,1.37,0,0,0-.3-.44c.27-.65.54-1.3.76-2a22.1,22.1,0,0,0,.13-12.33,1.14,1.14,0,0,0-.19-.4,26.07,26.07,0,0,0,2-3.46,31.64,31.64,0,0,0,2.83-9.68,12.2,12.2,0,0,0,5.65,1.36,9.74,9.74,0,0,0,3.08-.45,7.34,7.34,0,0,0,2.6-1.77c.2-.19.07-.95-.29-.84-3.52,1.05-7.66,1.42-10.86-.68,0-.41,0-.83,0-1.25a19.67,19.67,0,0,0-.88-5.4,5.76,5.76,0,0,0,1.54-.25,12.34,12.34,0,0,0,2.93-1.46,14.18,14.18,0,0,0,2.82-2.24,8.54,8.54,0,0,0,.94-1.13,7.35,7.35,0,0,0,.92-1.94,8.82,8.82,0,0,0,.56-3.44c0-.28-.47-.95-.67-.39a8.21,8.21,0,0,1-1.22,2.57c-.37.48-.82.87-1.23,1.31a10.17,10.17,0,0,1-1.19,1.08,18.56,18.56,0,0,1-2.83,1.8c-.48.26-1,.5-1.47.71l-.65.26-.32.11-.15,0-.34.06-.14,0-.53-.16a1.77,1.77,0,0,0-.23,0c-2.26-4.38-6.24-7.73-11.54-7.94a1.52,1.52,0,0,0-.21,0,9.73,9.73,0,0,0-.28-1.06c-1-3-3-6.89-6.28-7.85-.16-.05-.18.31-.09.39a14.19,14.19,0,0,1,3.53,4,11.68,11.68,0,0,1,1.14,4.68,15.12,15.12,0,0,1-2.38,8.84,23,23,0,0,1-6.39,6.64,20.35,20.35,0,0,1-9.9,3.53,6.94,6.94,0,0,0-.3-.8,12.62,12.62,0,0,0-5.29-5.39,12.42,12.42,0,0,0-3.53-1.31,7.33,7.33,0,0,0-3.77.3c-.44.14-.27,1,.19,1a9.57,9.57,0,0,1,10.08,6.34,10.65,10.65,0,0,1,.25,5.68,13.9,13.9,0,0,1-1,2.82,31.58,31.58,0,0,1-1.35,3.16c-.25.43.32,1.58.88,1.23a9,9,0,0,0,3.09-2.9,11.07,11.07,0,0,0,1.25-3.45,12.86,12.86,0,0,0,.08-4.59c3.87.72,7.95-1.27,11.08-3.38a22.07,22.07,0,0,0,7.7-8.49,15.48,15.48,0,0,0,1.61-6.62c7.35.58,10.47,8.1,10.48,14.68v.49c-.19,7.46-2.58,15.06-8.1,20.29-.11.11-.11.62.12.5a10.31,10.31,0,0,0,2.31-1.29,19.06,19.06,0,0,0,2.21-2.28c.06-.07.11-.15.17-.23.71,6.48-1.6,13.81-6.45,18.11-5.43,4.81-12.95,5.25-19.49,2.62-.45-.18-.29.73-.1.89a11.8,11.8,0,0,0,5.33,2.69,10.41,10.41,0,0,1-1.09.79,12.57,12.57,0,0,1-4.86,1.75A17.65,17.65,0,0,1,275.1,301c-.27-.15-.33.51-.14.64a20.27,20.27,0,0,0,9.42,3.78v.1a10.67,10.67,0,0,1-.12,1.69,12,12,0,0,1-.34,1.53c-.07.25-.15.5-.24.74-.18.48-.31,1-.5,1.46-.07.18.12.77.36.49a6.17,6.17,0,0,0,1-1.62,11.84,11.84,0,0,0,.61-1.73,11.47,11.47,0,0,0,.34-1.93c0-.21,0-.43,0-.65a14.17,14.17,0,0,0,1.84-.09,13.75,13.75,0,0,0,5.41-1.87,9.08,9.08,0,0,0,2.91-2.44,14.34,14.34,0,0,0,2.27-.13,19.59,19.59,0,0,0,8.09-3c.37,1.06.93,2.11,1.26,3.07a34.51,34.51,0,0,1,1.33,4.67c.68,3.62.83,7.58-.84,11,0,0,0,.15.05.07,1.84-3.26,3.45-6.57,3.33-10.4a19.88,19.88,0,0,0-1.12-5.86,13.74,13.74,0,0,0-2-4.08,19.69,19.69,0,0,0,3.26-3.81,10.58,10.58,0,0,0,7.29,4.76A17.23,17.23,0,0,0,330,295.18c6-3.33,10.9-10.47,9.94-17.5C339.85,277.37,339.52,277.12,339.38,277.53ZM199.9,279a13.47,13.47,0,0,1,3.75-4.23,12.9,12.9,0,0,1,5.06-2.21c2.24-.46,4.51-.08,6.77-.13.21,0,.23-.4.1-.51-2.6-2-6.23-2.22-9.52-1.34,0-.15.05-.29.07-.43a26.36,26.36,0,0,0,.32-3.42,12.68,12.68,0,0,0-1.1-5.77,10,10,0,0,0-4.15-4.35c-1.21-.69-3.11-1.65-4.51-.95-.19.09-.21.56,0,.62.68.2,1.4.21,2.08.42a5.87,5.87,0,0,1,2.2,1.18c1.17,1.07,1.71,2.92,2.09,4.42a17.13,17.13,0,0,1,.34,4.95c-.06.85-.16,1.7-.28,2.55-.06.42-.13.84-.17,1.26a4.41,4.41,0,0,0,0,.71,13.92,13.92,0,0,0-1.8,1.1,14.44,14.44,0,0,0-4.26,4.93,11.19,11.19,0,0,0-1.39,3.87,11.26,11.26,0,0,0-8,1.25c-.11.06-.13.44,0,.42a25.48,25.48,0,0,1,4.94,0,16.55,16.55,0,0,1,7.65,2.44c.64.43,1.24.9,1.88,1.33a17.37,17.37,0,0,0,1.91,1.3c.39.19.55-.34.51-.61a5.14,5.14,0,0,0-1.71-2.68,12,12,0,0,0-1.89-1.34,16.41,16.41,0,0,0-2.37-1.19c.11-.39.2-.79.31-1.12A14.78,14.78,0,0,1,199.9,279Zm148.5-5.56a30.64,30.64,0,0,0-4.18-7.31c-.27-.37-.5.29-.35.53a30.68,30.68,0,0,1,3.77,14.59A34.8,34.8,0,0,1,347,288c0-.21.07-.33.07-.33a10.8,10.8,0,0,0,3-1.05,27.6,27.6,0,0,0,.11-5.3A29,29,0,0,0,348.4,273.47Zm16-32.63a12.83,12.83,0,0,0-2.89-1.39,6.52,6.52,0,0,0-1.49-.38c-.56,0-1.1-.06-1.66-.12-.2,0-.21.4,0,.45a7.55,7.55,0,0,1,1.68.67c.45.23.92.41,1.37.63a17.84,17.84,0,0,1,2.79,1.74,13.21,13.21,0,0,1,1.33,1.15,8.41,8.41,0,0,0,1-1.06A16.28,16.28,0,0,0,364.35,240.84Zm-65.86,71a8.69,8.69,0,0,1-1.07.61,11.92,11.92,0,0,0-1,.75c-.62.54-1.16,1.16-1.8,1.69a17,17,0,0,1-4,2.42,11.91,11.91,0,0,1-8.41.83,6.2,6.2,0,0,1-2.82-1.8c-.69-.79-1.19-1.71-1.86-2.52a15,15,0,0,0-4.15-3.53c-3.41-1.9-7.06-2-10.72-1.42a24,24,0,0,0,1.65-5.56,23.05,23.05,0,0,0-1-12.17,16.92,16.92,0,0,0,3.86-4.86c1.7,2.35,5,3.78,7.54,4.35,3.93.88,8.49.89,12.19-.84,4-1.88,7.05-6.11,8.89-10a19.08,19.08,0,0,0,1.48-4.39,1.89,1.89,0,0,0,.58,0,5.28,5.28,0,0,0,1.22-.46,9.08,9.08,0,0,0,2.18-1.52,19.34,19.34,0,0,0,3.33-4.15c2-3.23,3.19-7.11,2-10.85,0-.11-.13,0-.11.1.78,3.52-1.33,6.86-3.23,9.65a19.35,19.35,0,0,1-2.9,3.48,10.33,10.33,0,0,1-1.7,1.25,8.73,8.73,0,0,1-1.14.58,10.53,10.53,0,0,0-1.41-6.17c-.19-.32-.57-.16-.54.2a20,20,0,0,1-2.26,11c-1.6,2.95-3.83,6.07-6.68,7.92s-6.37,2-9.55,1.63a17.17,17.17,0,0,1-8.91-4.08,19.29,19.29,0,0,0,.45-11.58,16.77,16.77,0,0,0-3.24-6.22,11.94,11.94,0,0,0-2.75-2.51,25.18,25.18,0,0,0,1.93-3.63c1.67-3.89,3.06-10,.91-14.13,3.42.23,7.18-1.09,10.09-2.68a18.74,18.74,0,0,0,3.24-2.14l.38-.08a8.37,8.37,0,0,1,2.18-.23,22.44,22.44,0,0,1,4,.42,20,20,0,0,1,3.65,1.1c1,.41,2.13,1.22,3.24,1a.07.07,0,0,0,0-.06,6.28,6.28,0,0,0-3.06-2.59A21.18,21.18,0,0,0,285,239a18.66,18.66,0,0,0-3.94-.59H281a6.06,6.06,0,0,0,.46-1.26c.81-3.29-.43-6.49-1.63-9.5-.29-.73-1.22-.62-1.05.24.47,2.44,1,5.09.29,7.54s-2.72,3.85-4.85,5.06a21.09,21.09,0,0,1-6.73,2.68,13.32,13.32,0,0,1-8.14-1.2c-.24-.12-.27.38-.18.5a8,8,0,0,0,4.31,3c0,.46,0,.92,0,1.38,0,1.18,0,2.37,0,3.56a23.55,23.55,0,0,1-1.12,6.17,25.69,25.69,0,0,1-6.49,10.31,36,36,0,0,1-10,6.82,12.93,12.93,0,0,1-6.52,1.7,6.41,6.41,0,0,1-5.5-4.57c0-.16-.21-.16-.27,0-.63,1.44.07,2.67.49,4a6.56,6.56,0,0,1-.56,4.16,5.64,5.64,0,0,1-2.81,3,8.32,8.32,0,0,1-3.22.53c-2,0-4.49-.33-5.77-2.07-.4-.55-.79.16-.58.59a5.94,5.94,0,0,0,3,2.84c-.31,1.27-.53,2.56-.87,3.82a31.81,31.81,0,0,1-1.83,5,24.47,24.47,0,0,1-5.25,7.55c-5.09,4.87-12.74,6.59-19,3.11-.28-.16-.3.49-.15.62a13.94,13.94,0,0,0,10.49,3.38,9.51,9.51,0,0,1-.67,1.06,11.64,11.64,0,0,1-3.12,3,19.21,19.21,0,0,1-7.44,3,18.89,18.89,0,0,1-15.09-4.35l0,0c-.07.45-.1.87-.16,1.31,4.12,3.93,9.53,6.34,15.34,5.69a19.75,19.75,0,0,0,8.91-3.28,13.93,13.93,0,0,0,3.27-3.14,11,11,0,0,0,2-3.8,17.8,17.8,0,0,0,6.33-3.06,23.6,23.6,0,0,0,5.7-6.37,9.84,9.84,0,0,1-.5.9,15.6,15.6,0,0,0,1.36,2.17,14.7,14.7,0,0,0,2.05,2.12c-.67,4.36-2.47,8.71-5.81,11.69a13.69,13.69,0,0,1-13.08,3.22c-.83-.25-.63,1.24-.06,1.47a14.72,14.72,0,0,0,13.67-1.64,19.18,19.18,0,0,0,8,15.17,21.93,21.93,0,0,0,11.2,4,20.18,20.18,0,0,0,5.26-.24,12.09,12.09,0,0,0,2.71-.74,15.06,15.06,0,0,0,2.05-1.34c.13-.08.21-.55,0-.52-.83.13-1.78.06-2.62.16s-1.63.22-2.45.31a24.91,24.91,0,0,1-5.18,0,18.43,18.43,0,0,1-9-3.4,17.2,17.2,0,0,1-6.75-15.62,1.22,1.22,0,0,0-.07-.57A21.19,21.19,0,0,0,228,304.55a17.44,17.44,0,0,0,1.55.8,24.87,24.87,0,0,0,8.18,2,26.86,26.86,0,0,0,4.66,0,12.75,12.75,0,0,0,4-1c.39-.16.32-1.1-.15-1.1-5.23.09-10.53.33-15.44-1.8a12.87,12.87,0,0,1-5-3.71,9.89,9.89,0,0,1-1.5-2.57,12.91,12.91,0,0,1-.52-2,33.14,33.14,0,0,0,2-5.58,29.06,29.06,0,0,0,.79-3.47c.14-1,.12-1.38,1.28-1.34a8.85,8.85,0,0,0,5.4-1.56,7.84,7.84,0,0,0,2.41-2.77c.14-.28,1.29-3.09,1-3.26a9.19,9.19,0,0,0,3.75,1c5.37.21,10.84-3.31,14.91-6.5a32.3,32.3,0,0,0,6.39-6.56c3.23,2.22,4.57,7.61,4.72,11.12a16.7,16.7,0,0,1-4,11.67c-5.44,6.13-14.56,6.58-21.54,3-.53-.27-.52.7-.25.93,5.56,4.83,14.17,4.64,20.31,1a26.21,26.21,0,0,1,.7,7.73,21.63,21.63,0,0,1-3.1,9.6,18.66,18.66,0,0,1-22.81,7.32c-.29-.11-.32.5-.14.63a16.64,16.64,0,0,0,13.62,2.14c.09.48.2.95.3,1.35a15,15,0,0,0,5.73,8.59c3.5,2.57,9.36,4.39,13.24,1.59.12-.09.13-.48-.07-.49a38.17,38.17,0,0,1-6.59-.25,12.5,12.5,0,0,1-5.52-2.46,13.06,13.06,0,0,1-3.51-4.62,12.59,12.59,0,0,1-.89-2.68c-.13-.58-.14-1.21-.23-1.82a19.36,19.36,0,0,0,7.08-4.65,19.84,19.84,0,0,0,2.84-3.82c3.64-.17,7.67-.19,10.71,1.89a16.63,16.63,0,0,1,5.81,8.36,26,26,0,0,1,1.22,10.24,40.94,40.94,0,0,1-.83,5.4,10,10,0,0,0,.56-.89,11.16,11.16,0,0,0,1.63,1,22.4,22.4,0,0,0,.91-15.58c.32.08.65.16,1,.22a15,15,0,0,0,9.61-1.41,16,16,0,0,0,4.16-3.34,16.24,16.24,0,0,0,1.44-1.78,4.67,4.67,0,0,0,.7-1.5,12.58,12.58,0,0,1,.27-1.36C298.84,312.09,298.72,311.58,298.49,311.81Zm56.18-60.09c-2.22-1.91-5.59-3.34-8.59-2.7.4-4,.08-8.26-2.19-11.39a13.05,13.05,0,0,0,5.25-2.1,8.28,8.28,0,0,0,2.15-2.35,11,11,0,0,0,2-.09c4.57-.77,8.19-5.21,8.46-10a7.35,7.35,0,0,0-1.82-.81,10.54,10.54,0,0,1-2.12,5.45,9.77,9.77,0,0,1-5.88,3.5,5.54,5.54,0,0,0-1.56-4.95c-.23-.22-.3.23-.22.36,2.23,3.62-2.59,6.59-6.25,7.63a23.87,23.87,0,0,1-11.7-.2,59,59,0,0,1-20.65-9.73c-.45-.32-.53.49-.27.71,7.25,6.17,15.5,12.24,26.1,12.87a32.76,32.76,0,0,0,3.44,0,11.14,11.14,0,0,1,2.46,6.83,33.94,33.94,0,0,1-.38,8.24,17.81,17.81,0,0,1-3.12,7.76,11.05,11.05,0,0,1-2.78,2.72c-.9.56-2.41,1.06-2.94,2,0,.05,0,.15,0,.18.84.57,2.11.11,3.06-.33a13.62,13.62,0,0,1-3.95,8.11,22.53,22.53,0,0,1-4,3.33c-.77.51-1.57,1-2.35,1.45a5.74,5.74,0,0,1-2.7,1c-.12,0-.18.26-.07.31,2.26,1,4.39.07,6.38-1.08a22.19,22.19,0,0,0,5.06-3.88,14,14,0,0,0,3.92-10.54,13.6,13.6,0,0,0,1.6-1.44,18,18,0,0,0,4.2-8.42c.14-.65.28-1.32.41-2a2.28,2.28,0,0,0,.9-.08,8.33,8.33,0,0,1,6.24.35,17.62,17.62,0,0,1,3,1.79c1,.75,2.08,1.54,2.28,2.88,0,.25.28.19.28,0C358.25,254.9,356.22,253.06,354.67,251.72ZM223.39,339.49a22,22,0,0,1-5.18,3.32h0a12.63,12.63,0,0,0,1.14,1.17,10.22,10.22,0,0,0,3.74-3.68C223.61,339.45,223.63,339.26,223.39,339.49ZM185.86,268.3a12.47,12.47,0,0,0,3.64,4.07c.13.09.18-.2.13-.27-1.69-2.92-3.56-5.64-4.53-8.91a31.42,31.42,0,0,1-.73-3.16,18.27,18.27,0,0,0-1.37,1.43c.18.73.38,1.46.63,2.18A23.19,23.19,0,0,0,185.86,268.3Zm28.56,57.43a23.87,23.87,0,0,1-12,7.13,27.63,27.63,0,0,1-6.91.63l.12,0a11,11,0,0,0,.56,2.23,26.75,26.75,0,0,0,7-.81c4.78-1.27,9.31-4.13,11.48-8.68C214.79,326.1,214.69,325.45,214.42,325.73Z" style="fill:#fff;opacity:0.2"></path></g><g id="freepik--skills-2--inject-205"><g id="freepik--Math--inject-205"><polygon points="140.76 318.11 141.43 318.77 104.78 356.27 95.39 356.27 95.39 355.33 104.38 355.33 140.76 318.11" style="fill:#455a64"></polygon><path d="M143.53,318.44a2.44,2.44,0,1,0-2.44,2.44A2.44,2.44,0,0,0,143.53,318.44Z" style="fill:#455a64"></path><g id="freepik--math--inject-205"><ellipse cx="68.38" cy="354.72" rx="27" ry="27.2" style="fill:#fff"></ellipse><path d="M68.38,326.71a28,28,0,1,1-27.81,28A27.95,27.95,0,0,1,68.38,326.71Zm0,55.2a27.19,27.19,0,1,0-27-27.19A27.12,27.12,0,0,0,68.38,381.91Z" style="fill:#455a64"></path><g id="freepik--math--inject-205"><path d="M56.74,364.46H53.81A1.49,1.49,0,0,1,52.34,363a1.09,1.09,0,0,1,.12-.53.76.76,0,0,1,.18-.26L56.29,357a10.14,10.14,0,0,1-2.49-.56,9,9,0,0,1-2.89-1.69A7.84,7.84,0,0,1,49,352.06a8.1,8.1,0,0,1-.72-3.45,8.24,8.24,0,0,1,.72-3.48,7.83,7.83,0,0,1,2-2.67,9,9,0,0,1,3-1.69,11.54,11.54,0,0,1,7.21,0,9,9,0,0,1,3,1.69,8.09,8.09,0,0,1,2,2.67,8.24,8.24,0,0,1,.72,3.48,7.75,7.75,0,0,1-.23,1.91,9,9,0,0,1-.59,1.63,15,15,0,0,1-.78,1.43c-.28.44-.57.86-.85,1.26l-6.11,8.72a5.94,5.94,0,0,1-.39.48A1.43,1.43,0,0,1,56.74,364.46Zm.78-23.1a10,10,0,0,0-3.23.52,7.77,7.77,0,0,0-2.56,1.47,6.71,6.71,0,0,0-1.7,2.27,7.23,7.23,0,0,0-.61,3,7.09,7.09,0,0,0,.61,3,6.77,6.77,0,0,0,1.66,2.26,7.85,7.85,0,0,0,2.52,1.47,9.35,9.35,0,0,0,3.18.53h1.13l-5,7.15h0a.31.31,0,0,0,.29.29h2.93a.41.41,0,0,0,.23,0,3.8,3.8,0,0,0,.29-.35l6.12-8.73c.28-.38.54-.78.81-1.21a11.61,11.61,0,0,0,.71-1.3,7.8,7.8,0,0,0,.52-1.43,6.29,6.29,0,0,0,.19-1.61,7.07,7.07,0,0,0-.61-3,6.82,6.82,0,0,0-1.69-2.27,7.92,7.92,0,0,0-2.57-1.47A10,10,0,0,0,57.52,341.36Zm0,11.58a5.37,5.37,0,0,1-3.43-1.08,4.41,4.41,0,0,1,0-6.48,5.77,5.77,0,0,1,6.86,0,4,4,0,0,1,1.42,3.23,3.93,3.93,0,0,1-1.43,3.23A5.28,5.28,0,0,1,57.52,352.94Zm0-7.51a4,4,0,0,0-2.69.86,2.83,2.83,0,0,0-1,2.32,2.79,2.79,0,0,0,1,2.33,4.19,4.19,0,0,0,2.69.83,4.08,4.08,0,0,0,2.68-.85,2.76,2.76,0,0,0,1-2.31,2.81,2.81,0,0,0-1-2.32A4,4,0,0,0,57.52,345.43Z" style="fill:#455a64"></path><path d="M79.33,345.61v3.69a.53.53,0,0,1-.16.39.57.57,0,0,1-.39.16H77.24a.57.57,0,0,1-.39-.16.53.53,0,0,1-.16-.39v-3.69H73.06a.54.54,0,0,1-.39-.17.49.49,0,0,1-.16-.38v-1.34a.55.55,0,0,1,.55-.55h3.63V339.5a.55.55,0,0,1,.55-.55h1.54a.55.55,0,0,1,.55.55v3.67h3.61a.55.55,0,0,1,.55.55v1.34a.49.49,0,0,1-.16.38.54.54,0,0,1-.39.17Z" style="fill:#455a64"></path><path d="M77.84,358.7H74.35c-.17,2-.33,3.67-.5,5s-.31,2.4-.46,3.33-.31,1.77-.47,2.54a3.72,3.72,0,0,1-.57,1.4,2.1,2.1,0,0,1-1.12.7,1.48,1.48,0,0,1-1.2-.24,1.56,1.56,0,0,1-.72-.94,1.87,1.87,0,0,1,0-.69,1.85,1.85,0,0,1,.16-.52,3.55,3.55,0,0,1,.28-.43c.1-.13.2-.27.31-.4l.52-.61a6.1,6.1,0,0,0,.72-1,2.88,2.88,0,0,0,.3-1l.91-7.07H71a2.42,2.42,0,0,0-1.17.29,2.44,2.44,0,0,0-.86.69l-.65,1h-.53c.14-.39.32-.86.53-1.41a6.89,6.89,0,0,1,.87-1.59,4.09,4.09,0,0,1,1.18-1.12,3.09,3.09,0,0,1,1.72-.48H83.61v2.66H79.72a70,70,0,0,0-.38,7.25,3.92,3.92,0,0,0,.23,1.3,2.56,2.56,0,0,0,.56,1,2.05,2.05,0,0,0,1,.51,1.82,1.82,0,0,0,1.75-1,2.25,2.25,0,0,0,.2-.66q.06-.32.09-.63h.65a6.89,6.89,0,0,1-.37,2.25,5.82,5.82,0,0,1-.86,1.62,3.68,3.68,0,0,1-1,.88,3.06,3.06,0,0,1-1.27.4,2,2,0,0,1-1.33-.34A4.47,4.47,0,0,1,77.53,369a9.14,9.14,0,0,1-.32-2.39,23.09,23.09,0,0,1,.1-2.9Z" style="fill:#0D6EFD"></path></g></g></g><g id="freepik--Science--inject-205"><path d="M118.18,262.19a2.44,2.44,0,1,1-2.43-2.43A2.43,2.43,0,0,1,118.18,262.19Z" style="fill:#455a64"></path><polygon points="82.45 268.88 103.22 268.88 115.95 262.62 115.54 261.77 103 267.94 82.45 267.94 82.45 268.88" style="fill:#455a64"></polygon><g id="freepik--science--inject-205"><ellipse cx="55.05" cy="268.41" rx="27" ry="27.2" style="fill:#fff"></ellipse><path d="M27.24,268.41a27.81,27.81,0,1,1,27.81,28A27.94,27.94,0,0,1,27.24,268.41Zm.83,0a27,27,0,1,0,27-27.19A27.11,27.11,0,0,0,28.07,268.41Z" style="fill:#455a64"></path><g id="freepik--science--inject-205"><path d="M65.79,258.54v15.63c0,2.45,2.89,2,2.89,0v4.59a2.28,2.28,0,0,1-2.59,2.54c-2.89,0-2.53-2.45-2.53-2.45V258.54Z" style="fill:#0D6EFD"></path><path d="M65.79,258.54v15.63c0,2.45,2.89,2,2.89,0v4.59a2.28,2.28,0,0,1-2.59,2.54c-2.89,0-2.53-2.45-2.53-2.45V258.54Z" style="fill:#fff;opacity:0.6000000000000001"></path><path d="M69.45,257.84H62.73a.81.81,0,0,0,0,1.61h.35v19.31a3,3,0,0,0,6,0V259.45h.34a.81.81,0,1,0,0-1.61Zm-1.12,20.92a2.24,2.24,0,1,1-4.48,0V259.45h4.48Z" style="fill:#455a64"></path><path d="M49.17,255.11v11.95c0,2.19-3.55,4.91-3.17,7.71s3.7,3.71,7.94,4.69,6-.17,5.14-2.57a22.48,22.48,0,0,1,1.44,2.42c.22.6.45,1.59-.61,1.89s-5.33.23-10.31.23H40.17A1.55,1.55,0,0,1,38.73,279c.76-1.44,8.32-14.38,8.32-14.38v-9.52Z" style="fill:#0D6EFD"></path><path d="M49.17,255.11v11.95c0,2.19-3.55,4.91-3.17,7.71s3.7,3.71,7.94,4.69,6-.17,5.14-2.57a22.48,22.48,0,0,1,1.44,2.42c.22.6.45,1.59-.61,1.89s-5.33.23-10.31.23H40.17A1.55,1.55,0,0,1,38.73,279c.76-1.44,8.32-14.38,8.32-14.38v-9.52Z" style="fill:#fff;opacity:0.6000000000000001"></path><path d="M60.84,279l-8.22-14.25v-9.08H53A.81.81,0,0,0,53,254H46.24a.81.81,0,0,0,0,1.62h.35v9.08L38.37,279A1.88,1.88,0,0,0,40,281.77H59.22A1.88,1.88,0,0,0,60.84,279Zm-.67,1.48a1.08,1.08,0,0,1-1,.56H40a1.11,1.11,0,0,1-1-1.66l8.32-14.42v-9.29h4.49v9.29l8.32,14.42A1.08,1.08,0,0,1,60.17,280.44Z" style="fill:#455a64"></path></g></g></g><g id="freepik--Language--inject-205"><path d="M137.87,200.22a2.44,2.44,0,1,0-2.44,2.44A2.44,2.44,0,0,0,137.87,200.22Z" style="fill:#455a64"></path><polygon points="98.64 170.12 118.41 170.12 135.84 199.98 135.03 200.46 117.87 171.06 98.64 171.06 98.64 170.12" style="fill:#455a64"></polygon><g id="freepik--language--inject-205"><ellipse cx="71.24" cy="170.59" rx="27" ry="27.2" style="fill:#fff"></ellipse><path d="M71.24,142.58a28,28,0,1,1-27.81,28A27.94,27.94,0,0,1,71.24,142.58Zm0,55.19a27.19,27.19,0,1,0-27-27.18A27.11,27.11,0,0,0,71.24,197.77Z" style="fill:#455a64"></path><g id="freepik--language--inject-205"><path d="M59.67,188.11a10,10,0,0,1-4.25-.9.5.5,0,0,1,.29-1,4.87,4.87,0,0,0,5.39-3.83c-5.36-3-8.56-8-8.56-13.4,0-8.81,8.39-16,18.7-16s18.69,7.16,18.69,16-8.38,16-18.69,16a21.38,21.38,0,0,1-2.89-.21A13.5,13.5,0,0,1,59.67,188.11ZM58.24,187a12.32,12.32,0,0,0,9.58-3.09.53.53,0,0,1,.43-.14,21.47,21.47,0,0,0,3,.23c9.75,0,17.68-6.71,17.68-15s-7.93-15-17.68-15-17.69,6.71-17.69,15c0,5.18,3.13,9.93,8.36,12.69a.51.51,0,0,1,.26.53A6,6,0,0,1,58.24,187Z" style="fill:#455a64"></path><path d="M60.31,168.14a1.79,1.79,0,0,1,.23-.58,2.37,2.37,0,0,1,.53-.58,3,3,0,0,1,.84-.44,3.36,3.36,0,0,1,1.15-.17,3.62,3.62,0,0,1,1.18.17,2.6,2.6,0,0,1,.91.51,2.24,2.24,0,0,1,.59.84,3.26,3.26,0,0,1,.2,1.17v3.78a.33.33,0,0,1-.1.24.34.34,0,0,1-.25.11h-1a.34.34,0,0,1-.25-.11.33.33,0,0,1-.1-.24v-.43a2.1,2.1,0,0,1-.78.64,2.74,2.74,0,0,1-1.29.27,3,3,0,0,1-1-.15,2,2,0,0,1-.74-.42,1.81,1.81,0,0,1-.45-.64,1.91,1.91,0,0,1-.16-.8,1.68,1.68,0,0,1,.63-1.39,3.58,3.58,0,0,1,1.68-.68l2.1-.36a.81.81,0,0,0-.35-.75,1.55,1.55,0,0,0-.86-.22,1.15,1.15,0,0,0-.5.09,1.56,1.56,0,0,0-.35.24,1.05,1.05,0,0,1-.21.15.76.76,0,0,1-.21,0h-1.2a.32.32,0,0,1-.22-.07A.2.2,0,0,1,60.31,168.14Zm2.14,3.63a2.28,2.28,0,0,0,.78-.12,1.72,1.72,0,0,0,.58-.33,1.34,1.34,0,0,0,.34-.46,1.24,1.24,0,0,0,.12-.53v-.13l-1.75.31a1.89,1.89,0,0,0-.76.26.58.58,0,0,0-.23.47.42.42,0,0,0,.27.4A1.51,1.51,0,0,0,62.45,171.77Z" style="fill:#0D6EFD"></path><path d="M72.13,166.37a2.64,2.64,0,0,1,2.05.92,3,3,0,0,1,.58,1,3.74,3.74,0,0,1,.24,1.14c0,.13,0,.28,0,.45s0,.32,0,.45a3.62,3.62,0,0,1-.24,1.14,3,3,0,0,1-.58,1,2.69,2.69,0,0,1-2.05.93,3.08,3.08,0,0,1-.71-.08,2.62,2.62,0,0,1-.56-.2,1.71,1.71,0,0,1-.4-.25,2.27,2.27,0,0,1-.27-.25v.3a.34.34,0,0,1-.11.24.3.3,0,0,1-.24.11h-1a.34.34,0,0,1-.24-.11.33.33,0,0,1-.1-.24V164.4a.33.33,0,0,1,.1-.25.33.33,0,0,1,.24-.1h1a.3.3,0,0,1,.24.1.34.34,0,0,1,.11.25v2.74a2.27,2.27,0,0,1,.27-.25,1.71,1.71,0,0,1,.4-.25,2.62,2.62,0,0,1,.56-.2A3.11,3.11,0,0,1,72.13,166.37Zm1.2,3.11a1.69,1.69,0,0,0-.52-1.2,1.58,1.58,0,0,0-1.07-.37,1.53,1.53,0,0,0-1.06.39,1.56,1.56,0,0,0-.49,1,4,4,0,0,0,0,1,1.47,1.47,0,0,0,1.55,1.44,1.58,1.58,0,0,0,1.07-.37,1.69,1.69,0,0,0,.52-1.2A4.33,4.33,0,0,0,73.33,169.48Z" style="fill:#0D6EFD"></path><path d="M78.69,169.39c0,.13,0,.28,0,.45s0,.32,0,.45a2.11,2.11,0,0,0,.18.68,1.54,1.54,0,0,0,.36.46,1.45,1.45,0,0,0,.47.26,1.82,1.82,0,0,0,.52.08,2.61,2.61,0,0,0,.54-.05,1,1,0,0,0,.38-.15,1.12,1.12,0,0,0,.26-.22,1.94,1.94,0,0,0,.21-.27l.18-.24a.34.34,0,0,1,.25-.11h1a.36.36,0,0,1,.25.1.29.29,0,0,1,.09.25,1.6,1.6,0,0,1-.19.65,2.38,2.38,0,0,1-.56.74,3.08,3.08,0,0,1-1,.6,3.79,3.79,0,0,1-1.42.25,3.23,3.23,0,0,1-1.27-.24,3.05,3.05,0,0,1-1-.65,3,3,0,0,1-.66-.94,3.31,3.31,0,0,1-.29-1.12,4.52,4.52,0,0,1,0-1,3.41,3.41,0,0,1,.28-1.14,3.13,3.13,0,0,1,.66-.94,3.05,3.05,0,0,1,1-.65,3.51,3.51,0,0,1,1.28-.23,3.8,3.8,0,0,1,1.42.24,3.08,3.08,0,0,1,1,.6,2.5,2.5,0,0,1,.56.74,1.64,1.64,0,0,1,.19.65.29.29,0,0,1-.09.25.36.36,0,0,1-.25.1H82a.34.34,0,0,1-.25-.11l-.18-.24a1.94,1.94,0,0,0-.21-.27,1.12,1.12,0,0,0-.26-.22,1.5,1.5,0,0,0-.38-.15,2.61,2.61,0,0,0-.54-.05,1.82,1.82,0,0,0-.52.08,1.66,1.66,0,0,0-.47.26,1.54,1.54,0,0,0-.36.46A2.11,2.11,0,0,0,78.69,169.39Z" style="fill:#0D6EFD"></path></g></g></g><g id="freepik--Logic--inject-205"><path d="M197.75,156.1a2.44,2.44,0,1,0-2.44,2.44A2.44,2.44,0,0,0,197.75,156.1Z" style="fill:#455a64"></path><polygon points="160.75 113.84 171.34 113.84 195.72 155.87 194.91 156.34 170.8 114.78 160.75 114.78 160.75 113.84" style="fill:#455a64"></polygon><g id="freepik--Strategy--inject-205"><ellipse cx="136.66" cy="101.46" rx="27" ry="27.2" style="fill:#fff"></ellipse><path d="M136.66,73.45a28,28,0,1,1-27.81,28A27.94,27.94,0,0,1,136.66,73.45Zm0,55.19a27.19,27.19,0,1,0-27-27.18A27.12,27.12,0,0,0,136.66,128.64Z" style="fill:#455a64"></path></g><g id="freepik--Puzzle--inject-205"><path d="M136.61,119.91a1.82,1.82,0,0,0,2.57-.19,2,2,0,0,0,.39-1.15,1.89,1.89,0,0,1,1.18-1.82c.93-.23,2.05.66,3.76,2,.45.36,1,.77,1.53,1.19,2.18-2.59,4.4-5.35,4.3-6.46v0c-.1-.64-.8-.81-1.4-.77a1.67,1.67,0,0,1-1.19-.28c-.74-.55-.67-1.9.15-3s2.1-1.54,2.84-1a1.71,1.71,0,0,1,.61,1.07c.13.59.51,1.23,1.17,1.11,1.07-.21,2.56-2.42,4.43-5.25l0,0-.45-.33-.43-.33c-2.17-1.62-3.69-2.83-3.74-3.91,0-.82.73-1.39,1.41-1.64a2.16,2.16,0,0,0,1-.7,1.55,1.55,0,0,0,.28-1.18,2.05,2.05,0,0,0-.83-1.34,1.82,1.82,0,0,0-2.57.18,2.16,2.16,0,0,0-.39,1.16c-.05.72-.38,1.63-1.18,1.82-1.1.26-2.53-.81-4.89-2.58l-.56-.42c-2,2.36-3.76,4.67-3.65,5.85v0c.1.63.8.8,1.39.76a1.75,1.75,0,0,1,1.2.28c.74.56.67,1.9-.16,3s-2.09,1.55-2.83,1a1.74,1.74,0,0,1-.61-1.07c-.13-.59-.51-1.24-1.17-1.11-1,.19-2.64,2.45-4.55,5.06l-.56.78c.51.37,1,.73,1.49,1.07,1.93,1.39,3.32,2.39,3.36,3.36,0,.82-.73,1.4-1.41,1.65a2,2,0,0,0-1,.7,1.59,1.59,0,0,0-.28,1.18A2.05,2.05,0,0,0,136.61,119.91Z" style="fill:#0D6EFD"></path><path d="M129.8,83.51c.47.67.92,1.29,1.32,1.84,1.4,1.93,2.32,3.2,2.14,4-.13.69-.93.9-1.56.87a2.15,2.15,0,0,0-1.3.33,2.48,2.48,0,0,0,2.73,3.94,2.09,2.09,0,0,0,.77-1.1c.19-.61.67-1.27,1.36-1.17.88.14,1.91,1.69,3.21,3.65.36.54.74,1.1,1.15,1.69-2.37,1.89-5,3.86-6.15,3.63-.67-.14-.89-.93-.86-1.57a2,2,0,0,0-.33-1.29,2.48,2.48,0,0,0-3.94,2.73,2.14,2.14,0,0,0,1.1.76c.61.2,1.28.68,1.17,1.36-.17,1-2.05,2.16-4.67,3.72l-.63.37c-.43-.61-.83-1.16-1.19-1.66-1.37-1.92-2.29-3.17-2.1-4.05.13-.68.93-.89,1.56-.87a2,2,0,0,0,1.3-.33,2.47,2.47,0,0,0-2.73-3.93,2,2,0,0,0-.77,1.09c-.19.61-.67,1.28-1.36,1.17-.88-.14-2-1.77-3.35-3.83-.36-.54-.73-1.1-1.14-1.68.85-.51,1.68-1,2.41-1.34,1.89-1,3.26-1.76,3.4-2.65s-.63-1.39-1.32-1.62a1.81,1.81,0,0,1-1-.67,1.94,1.94,0,0,1,.84-2.57,2,2,0,0,1,2.71.1,1.9,1.9,0,0,1,.29,1.15c0,.73.23,1.64,1.05,1.81s2.29-.94,4.14-2.5C128.62,84.48,129.18,84,129.8,83.51Z" style="fill:#455a64"></path></g></g><g id="freepik--analytic-thought--inject-205"><path d="M276.2,140.35A2.44,2.44,0,1,0,273,141.7,2.45,2.45,0,0,0,276.2,140.35Z" style="fill:#455a64"></path><polygon points="274.49 98.73 260.72 91.88 260.37 92.75 273.63 99.4 273.47 139.51 274.4 139.38 274.49 98.73" style="fill:#455a64"></polygon><g id="freepik--strategy--inject-205"><ellipse cx="234.64" cy="83.82" rx="27" ry="27.2" style="fill:#fff"></ellipse><path d="M234.64,55.81a28,28,0,1,1-27.81,28A27.94,27.94,0,0,1,234.64,55.81Zm0,55.19a27.19,27.19,0,1,0-27-27.18A27.11,27.11,0,0,0,234.64,111Z" style="fill:#455a64"></path><g style="opacity:0.6000000000000001"><path d="M238.27,74.48l.71-.61s.37-.44.53-.68h0c-2.26-.5-4.26-.09-6.08-1.93a6.76,6.76,0,0,1-1.44-6.57,5.87,5.87,0,0,0-.95,9.84h4.39C235.47,74.47,238.27,74.48,238.27,74.48Z" style="fill:#fff"></path><path d="M235.38,74.52H230.9a2.16,2.16,0,0,0-2.15,2.16h5.08A3.39,3.39,0,0,1,235.38,74.52Z" style="fill:#fff"></path><path d="M236,89.28c-2.08-2.51-2.46-6.34-2.44-9.45a13.55,13.55,0,0,1,.25-3.15h-3a34.07,34.07,0,0,1-2.45,12.94h8C236.22,89.5,236.12,89.4,236,89.28Z" style="fill:#fff"></path><path d="M236.84,92.5a8.71,8.71,0,0,1-.26-2.61l-.25-.27H226v3.59h11.21A2.09,2.09,0,0,1,236.84,92.5Z" style="fill:#fff"></path><path d="M240.56,97.45h-17v3.6h17.52A9.79,9.79,0,0,0,240.56,97.45Z" style="fill:#fff"></path><path d="M240.13,96.73c-.91-1.19-2.08-1.91-2.76-3.22a2,2,0,0,1-.2-.3h-9.44a9.84,9.84,0,0,0-2.64,4.25h15.47A3.67,3.67,0,0,0,240.13,96.73Z" style="fill:#fff"></path><path d="M238.27,74.48l.71-.61a6.9,6.9,0,0,0,.53-.68h0c-2.26-.5-4.26-.09-6.08-1.93a6.76,6.76,0,0,1-1.44-6.57,5.87,5.87,0,0,0-.95,9.84h4.39C235.47,74.47,238.27,74.48,238.27,74.48Z" style="fill:#0D6EFD"></path><path d="M235.38,74.52H230.9a2.16,2.16,0,0,0-2.15,2.16h5.08A3.39,3.39,0,0,1,235.38,74.52Z" style="fill:#0D6EFD"></path><path d="M236,89.28c-2.08-2.51-2.46-6.34-2.44-9.45a13.55,13.55,0,0,1,.25-3.15h-3a34.07,34.07,0,0,1-2.45,12.94h8C236.22,89.5,236.12,89.4,236,89.28Z" style="fill:#0D6EFD"></path><path d="M236.84,92.5a8.71,8.71,0,0,1-.26-2.61l-.25-.27H226v3.59h11.21A2.09,2.09,0,0,1,236.84,92.5Z" style="fill:#0D6EFD"></path><path d="M240.56,97.45h-17v3.6h17.52A9.79,9.79,0,0,0,240.56,97.45Z" style="fill:#0D6EFD"></path><path d="M240.13,96.73c-.91-1.19-2.08-1.91-2.76-3.22a2,2,0,0,1-.2-.3h-9.44a9.84,9.84,0,0,0-2.64,4.25h15.47A3.67,3.67,0,0,0,240.13,96.73Z" style="fill:#0D6EFD"></path></g><path d="M238.42,74.93h-7.57l-.11-.09a6.23,6.23,0,0,1-2.4-4.93,6.3,6.3,0,1,1,12.59,0,6.23,6.23,0,0,1-2.4,4.93Zm-7.29-.81h7a5.49,5.49,0,1,0-7,0Z" style="fill:#455a64"></path><path d="M240.93,77.09H228.34v-.41a2.56,2.56,0,0,1,2.56-2.56h7.47a2.56,2.56,0,0,1,2.56,2.56Zm-11.73-.82h10.87a1.76,1.76,0,0,0-1.7-1.34H230.9A1.76,1.76,0,0,0,229.2,76.27Z" style="fill:#455a64"></path><path d="M241.52,90H227.75l.22-.55a33.38,33.38,0,0,0,2.42-12.79v-.41h8.49v.41a33.38,33.38,0,0,0,2.42,12.79Zm-12.58-.81h11.39a34.36,34.36,0,0,1-2.26-12.12h-6.86A34.6,34.6,0,0,1,228.94,89.21Z" style="fill:#455a64"></path><path d="M243.71,93.62H225.56V89.21h18.15Zm-17.34-.81H242.9V90H226.37Z" style="fill:#455a64"></path><path d="M246.09,101.46H223.18V97.05h22.91ZM224,100.64h21.28V97.86H224Z" style="fill:#455a64"></path><path d="M244.74,97.86H224.53l.17-.52a10.28,10.28,0,0,1,2.74-4.42l.12-.12h14.15l.12.12a10.28,10.28,0,0,1,2.74,4.42Zm-19.08-.81h18a9.62,9.62,0,0,0-2.24-3.43H227.89A9.46,9.46,0,0,0,225.66,97.05Z" style="fill:#455a64"></path></g></g></g><g id="freepik--skills-1--inject-205"><g id="freepik--Art--inject-205"><path d="M224,362.46a2.44,2.44,0,1,0,3.18-1.35A2.44,2.44,0,0,0,224,362.46Z" style="fill:#0D6EFD"></path><polygon points="225.74 404.08 239.51 410.93 239.86 410.06 226.6 403.41 226.76 363.3 225.83 363.43 225.74 404.08" style="fill:#0D6EFD"></polygon><g id="freepik--art--inject-205"><ellipse cx="265.6" cy="418.99" rx="27" ry="27.2" style="fill:#fff"></ellipse><path d="M265.6,447a28,28,0,1,1,27.81-28A27.94,27.94,0,0,1,265.6,447Zm0-55.19a27.19,27.19,0,1,0,27,27.18A27.11,27.11,0,0,0,265.6,391.81Z" style="fill:#0D6EFD"></path><g id="freepik--art--inject-205"><path d="M259.9,436.34a10.63,10.63,0,0,1-6.63-2.45,19.48,19.48,0,0,1-1.05-29.22c2.93-2.66,8.09-5.51,16-4,10.21,2,12.73,10.9,12.31,14.67-.29,2.63-1,5.35-4.07,7.46a12.72,12.72,0,0,1-4.4,1.7l-.78.19c-1.37.35-2.34.6-3,1.51a5.1,5.1,0,0,0-.87,2.8,13.38,13.38,0,0,1-.18,1.34c-.63,3.12-2.37,5-5.18,5.72A9.22,9.22,0,0,1,259.9,436.34Zm4-35.31a16.26,16.26,0,0,0-11.2,4.21A18.2,18.2,0,0,0,247,420.15h0c.52,5.66,2.68,9.84,6.8,13.15a9.45,9.45,0,0,0,8.12,2c2.49-.6,4.05-2.32,4.61-5.13a11,11,0,0,0,.17-1.25,5.89,5.89,0,0,1,1-3.19c.84-1.12,2-1.43,3.42-1.78l.81-.21A11.87,11.87,0,0,0,276,422.2c2.67-1.83,3.42-4.09,3.74-6.92.39-3.55-2-12-11.7-13.83A21.62,21.62,0,0,0,263.93,401Z" style="fill:#455a64"></path><path d="M260.12,432.8a3.81,3.81,0,0,1-3.41-5.56h0a3.83,3.83,0,1,1,3.41,5.56Zm-2.72-5.21h0A3.06,3.06,0,1,0,263,428a3,3,0,0,0-1.52-1.78A3.05,3.05,0,0,0,257.4,427.59Z" style="fill:#455a64"></path><path d="M252.89,408.94a2.38,2.38,0,1,1,1,3.21A2.39,2.39,0,0,1,252.89,408.94Z" style="fill:#0D6EFD"></path><path d="M252.89,408.94a2.38,2.38,0,1,1,1,3.21A2.39,2.39,0,0,1,252.89,408.94Z" style="fill:#fff;opacity:0.6000000000000001"></path><path d="M255,412.79a2.81,2.81,0,0,1-1.26-.3,2.76,2.76,0,0,1-1.2-3.72,2.7,2.7,0,0,1,1.61-1.37,2.76,2.76,0,1,1,.85,5.39Zm0-4.76a2.27,2.27,0,0,0-.62.09,2,2,0,1,0,1.53.13A2,2,0,0,0,255,408Z" style="fill:#455a64"></path><path d="M249.78,416.54a2.38,2.38,0,1,1,1,3.21A2.37,2.37,0,0,1,249.78,416.54Z" style="fill:#0D6EFD"></path><path d="M249.78,416.54a2.38,2.38,0,1,1,1,3.21A2.37,2.37,0,0,1,249.78,416.54Z" style="fill:#fff;opacity:0.6000000000000001"></path><path d="M251.9,420.4a2.82,2.82,0,0,1-1.26-.31,2.77,2.77,0,0,1-1.37-1.61,2.76,2.76,0,0,1,3.89-3.31,2.76,2.76,0,0,1-.41,5.09A2.8,2.8,0,0,1,251.9,420.4Zm0-4.77a2,2,0,0,0-1.9,2.61,2,2,0,0,0,1,1.17,2,2,0,0,0,1.53.12,2,2,0,0,0,.29-3.68A2,2,0,0,0,251.9,415.63Z" style="fill:#455a64"></path><path d="M260.38,405a2.39,2.39,0,1,1,1,3.21A2.4,2.4,0,0,1,260.38,405Z" style="fill:#0D6EFD"></path><path d="M260.38,405a2.39,2.39,0,1,1,1,3.21A2.4,2.4,0,0,1,260.38,405Z" style="fill:#fff;opacity:0.6000000000000001"></path><path d="M262.5,408.84a2.74,2.74,0,0,1-1.25-.3,2.78,2.78,0,0,1-1.38-1.61,2.81,2.81,0,0,1,.17-2.11h0a2.77,2.77,0,1,1,3.32,3.89A2.8,2.8,0,0,1,262.5,408.84Zm-1.78-3.67a2,2,0,0,0-.12,1.52,2,2,0,0,0,1,1.17,2,2,0,0,0,1.52.12,2,2,0,0,0,1.17-1,2,2,0,0,0-3.57-1.81Z" style="fill:#455a64"></path><path d="M268.68,406.44a2.38,2.38,0,1,1,1,3.2A2.39,2.39,0,0,1,268.68,406.44Z" style="fill:#0D6EFD"></path><path d="M268.68,406.44a2.38,2.38,0,1,1,1,3.2A2.39,2.39,0,0,1,268.68,406.44Z" style="fill:#fff;opacity:0.6000000000000001"></path><path d="M270.8,410.29a2.69,2.69,0,0,1-1.25-.31,2.77,2.77,0,0,1-1.21-3.72h0a2.76,2.76,0,0,1,1.61-1.37,2.71,2.71,0,0,1,2.11.17,2.75,2.75,0,0,1,1.38,1.61,2.77,2.77,0,0,1-2.64,3.62ZM269,406.61a2,2,0,1,0,3.56,1.82,2,2,0,0,0-2.4-2.81,2,2,0,0,0-1.16,1Z" style="fill:#455a64"></path><path d="M273.13,413.55a2.38,2.38,0,1,1,1,3.21A2.4,2.4,0,0,1,273.13,413.55Z" style="fill:#0D6EFD"></path><path d="M273.13,413.55a2.38,2.38,0,1,1,1,3.21A2.4,2.4,0,0,1,273.13,413.55Z" style="fill:#fff;opacity:0.6000000000000001"></path><path d="M275.25,417.4a2.84,2.84,0,0,1-1.26-.3,2.78,2.78,0,0,1-1.2-3.72A2.73,2.73,0,0,1,274.4,412a2.76,2.76,0,1,1,.85,5.39Zm0-4.76a2.15,2.15,0,0,0-.61.09,2,2,0,1,0,1.52.13A1.91,1.91,0,0,0,275.25,412.64Z" style="fill:#455a64"></path><path d="M274.47,427.57a6,6,0,0,0-3.66,5.61c0,2.43,2,4.14,3.14,4.2,0,0-.95-1,.7-2.33s3.34-3.57,2.5-6.17Z" style="fill:#fff"></path><path d="M278,426.8a12.86,12.86,0,0,0,3.09-4.07c1-2,5.81-13.49,4.28-14.23s-7.66,10.13-8.62,12.1a12.92,12.92,0,0,0-1.33,4.94Z" style="fill:#fff"></path><path d="M278.08,427.17l-2.94-1.44v-.2a12.87,12.87,0,0,1,1.35-5.07c.07-.14,7-13.26,9.05-12.25s-4.06,14.53-4.13,14.66a13,13,0,0,1-3.18,4.18Zm-2.29-1.83,2.2,1.08a13.06,13.06,0,0,0,2.86-3.83c1.76-3.61,5.41-13.32,4.42-13.81s-6.43,8.35-8.2,12A13.31,13.31,0,0,0,275.79,425.34Z" style="fill:#455a64"></path><rect x="275.12" y="425.75" width="2.26" height="2.87" transform="translate(-228.91 487.24) rotate(-63.89)" style="fill:#fff"></rect><path d="M277.2,429.29,274,427.72l1.3-2.64,3.19,1.56Zm-2.27-1.88,2,1,.69-1.42-2-1Z" style="fill:#455a64"></path><path d="M274,437.38s-.95-1,.7-2.33c.2-.16.4-.34.6-.52a3,3,0,0,1-1.55-1.2c-.55-.87-.63-2-1.14-2.86a3.13,3.13,0,0,0-.65-.8,6,6,0,0,0-1.1,3.51C270.83,435.61,272.8,437.32,274,437.38Z" style="fill:#0D6EFD"></path><path d="M274,437.38s-.95-1,.7-2.33c.2-.16.4-.34.6-.52a3,3,0,0,1-1.55-1.2c-.55-.87-.63-2-1.14-2.86a3.13,3.13,0,0,0-.65-.8,6,6,0,0,0-1.1,3.51C270.83,435.61,272.8,437.32,274,437.38Z" style="fill:#fff;opacity:0.6000000000000001"></path><path d="M274,437.72h0c-1.38-.07-3.45-2-3.47-4.53a6.41,6.41,0,0,1,3.87-5.93.37.37,0,0,1,.29,0l2.68,1.32a.32.32,0,0,1,.18.2c1.06,3.3-1.74,5.84-2.62,6.53a2,2,0,0,0-.84,1.22.94.94,0,0,0,.18.62.33.33,0,0,1,.06.38A.34.34,0,0,1,274,437.72Zm.51-9.77a5.73,5.73,0,0,0-3.31,5.23,4.25,4.25,0,0,0,2.2,3.68,2.19,2.19,0,0,1,0-.37,2.48,2.48,0,0,1,1.1-1.71c.78-.62,3.23-2.84,2.43-5.65Z" style="fill:#455a64"></path></g></g></g><g id="freepik--Music--inject-205"><path d="M302.48,346.71a2.44,2.44,0,1,0,2.44-2.44A2.44,2.44,0,0,0,302.48,346.71Z" style="fill:#0D6EFD"></path><polygon points="339.48 388.98 328.89 388.98 304.51 346.94 305.32 346.47 329.43 388.04 339.48 388.04 339.48 388.98" style="fill:#0D6EFD"></polygon><g id="freepik--music--inject-205"><ellipse cx="363.57" cy="401.35" rx="27" ry="27.2" style="fill:#fff"></ellipse><path d="M363.57,429.36a28,28,0,1,1,27.81-28A27.94,27.94,0,0,1,363.57,429.36Zm0-55.19a27.19,27.19,0,1,0,27,27.18A27.12,27.12,0,0,0,363.57,374.17Z" style="fill:#0D6EFD"></path><g id="freepik--music--inject-205"><path id="freepik--musical-note--inject-205" d="M372.86,404.46a4.25,4.25,0,0,1,1.72-.1,9,9,0,0,1,2.2.68,15.94,15.94,0,0,0,2.89,1.07,3.79,3.79,0,0,0,3-.45,3.92,3.92,0,0,1-1.7-.55c-1.24-.75-2.05-2.34-3.11-3.32-1.57-1.47-3.36-1.71-5.64-1.57-.34,1.86-.73,3.71-1.1,5.56-.29,1.46-.58,2.91-.86,4.36l-.45,2a3.75,3.75,0,0,0-1.54-.7,3.18,3.18,0,1,0,2.5,3.73Z" style="fill:#0D6EFD"></path><path id="freepik--musical-note--inject-205" d="M349,388.64l2.43,12.05a3.08,3.08,0,0,0-1.09,0,3.22,3.22,0,1,0,3.8,2.51l-2.18-10.8,10.29-5.05h0l2.18,10.69a3.09,3.09,0,0,0-1.09,0,3.21,3.21,0,1,0,3.79,2.51h0l-3.63-17.86Z" style="fill:#455a64"></path></g></g></g><g id="freepik--Imagination--inject-205"><path d="M362.36,302.59a2.44,2.44,0,1,0,2.44-2.44A2.44,2.44,0,0,0,362.36,302.59Z" style="fill:#0D6EFD"></path><polygon points="401.6 332.69 381.82 332.69 364.39 302.83 365.2 302.36 382.36 331.75 401.6 331.75 401.6 332.69" style="fill:#0D6EFD"></polygon><g id="freepik--imagination--inject-205"><ellipse cx="428.99" cy="332.22" rx="27" ry="27.2" style="fill:#fff"></ellipse><path d="M429,360.23a28,28,0,1,1,27.81-28A27.94,27.94,0,0,1,429,360.23ZM429,305a27.19,27.19,0,1,0,27,27.18A27.11,27.11,0,0,0,429,305Z" style="fill:#0D6EFD"></path><g id="freepik--imagination--inject-205"><path d="M417.41,327.41a1.75,1.75,0,0,1,.24-.58,2,2,0,0,1,.53-.58,2.84,2.84,0,0,1,.83-.45,3.68,3.68,0,0,1,1.16-.17,4,4,0,0,1,1.18.17,2.79,2.79,0,0,1,.91.51,2.34,2.34,0,0,1,.58.85,3,3,0,0,1,.21,1.16v3.78a.34.34,0,0,1-.11.25.31.31,0,0,1-.24.1h-1a.33.33,0,0,1-.24-.1.34.34,0,0,1-.11-.25v-.42a2.25,2.25,0,0,1-.77.64,2.89,2.89,0,0,1-1.3.26,3,3,0,0,1-1-.15,2.09,2.09,0,0,1-.73-.42,1.9,1.9,0,0,1-.46-.63,2,2,0,0,1-.16-.81,1.69,1.69,0,0,1,.63-1.39,3.68,3.68,0,0,1,1.69-.68l2.09-.36a.82.82,0,0,0-.34-.75,1.64,1.64,0,0,0-.86-.21,1.16,1.16,0,0,0-.51.09,1.82,1.82,0,0,0-.35.24.51.51,0,0,1-.21.14.46.46,0,0,1-.21,0h-1.2a.37.37,0,0,1-.22-.08A.21.21,0,0,1,417.41,327.41Zm2.15,3.63a2.13,2.13,0,0,0,.78-.13,1.73,1.73,0,0,0,.57-.32,1.41,1.41,0,0,0,.35-.47,1.23,1.23,0,0,0,.11-.53v-.12l-1.75.3a1.94,1.94,0,0,0-.76.27.56.56,0,0,0-.23.47.44.44,0,0,0,.28.4A1.6,1.6,0,0,0,419.56,331Z" style="fill:#0D6EFD"></path><path d="M429.24,325.63a2.63,2.63,0,0,1,1.16.25,2.82,2.82,0,0,1,.89.67,3.25,3.25,0,0,1,.58,1,3.62,3.62,0,0,1,.24,1.14c0,.12,0,.27,0,.45s0,.32,0,.45a3.74,3.74,0,0,1-.24,1.14,3.33,3.33,0,0,1-.58,1,2.82,2.82,0,0,1-.89.67,2.63,2.63,0,0,1-1.16.25,3.11,3.11,0,0,1-.72-.08,2.53,2.53,0,0,1-.55-.19,2.22,2.22,0,0,1-.41-.25,3.59,3.59,0,0,1-.27-.25v.29a.33.33,0,0,1-.1.25.33.33,0,0,1-.24.1h-1a.34.34,0,0,1-.35-.35v-8.44a.33.33,0,0,1,.1-.24.33.33,0,0,1,.25-.1h1a.34.34,0,0,1,.34.34v2.74a3.59,3.59,0,0,1,.27-.25,2.22,2.22,0,0,1,.41-.25,2.53,2.53,0,0,1,.55-.19A3.11,3.11,0,0,1,429.24,325.63Zm1.19,3.12a1.73,1.73,0,0,0-.51-1.21,1.63,1.63,0,0,0-1.07-.36,1.52,1.52,0,0,0-1.06.38,1.59,1.59,0,0,0-.5,1.06c0,.13,0,.29,0,.49s0,.36,0,.48a1.5,1.5,0,0,0,1.56,1.45,1.64,1.64,0,0,0,1.07-.37,1.72,1.72,0,0,0,.51-1.2A2.89,2.89,0,0,0,430.43,328.75Z" style="fill:#0D6EFD"></path><path d="M435.8,328.66a2.81,2.81,0,0,0,0,.45,3,3,0,0,0,0,.45,1.75,1.75,0,0,0,.18.68,1.37,1.37,0,0,0,.35.46,1.42,1.42,0,0,0,.47.25,1.6,1.6,0,0,0,.53.09,2.12,2.12,0,0,0,.54-.06,1.14,1.14,0,0,0,.37-.14,1.52,1.52,0,0,0,.27-.22,3.4,3.4,0,0,0,.21-.28,1.81,1.81,0,0,1,.18-.23.31.31,0,0,1,.24-.12h1a.34.34,0,0,1,.25.11.26.26,0,0,1,.1.24,1.87,1.87,0,0,1-.19.66,2.63,2.63,0,0,1-.56.74,3.55,3.55,0,0,1-1,.6,3.71,3.71,0,0,1-1.41.24,3.21,3.21,0,0,1-2.26-.88,3.08,3.08,0,0,1-.66-.94,3.61,3.61,0,0,1-.28-1.13,3.89,3.89,0,0,1,0-.51,4.33,4.33,0,0,1,0-.53,3,3,0,0,1,.28-1.13,3.15,3.15,0,0,1,.65-.95,3.19,3.19,0,0,1,1-.64,3.28,3.28,0,0,1,1.28-.24,3.52,3.52,0,0,1,1.41.25,3.31,3.31,0,0,1,1,.59,2.63,2.63,0,0,1,.56.74,1.87,1.87,0,0,1,.19.66.25.25,0,0,1-.1.24.34.34,0,0,1-.25.11h-1a.31.31,0,0,1-.24-.12,1.81,1.81,0,0,1-.18-.23l-.21-.28a1.52,1.52,0,0,0-.27-.22,1.14,1.14,0,0,0-.37-.14,2.16,2.16,0,0,0-.54-.05,1.59,1.59,0,0,0-.53.08,1.28,1.28,0,0,0-.47.26,1.24,1.24,0,0,0-.35.45A1.75,1.75,0,0,0,435.8,328.66Z" style="fill:#0D6EFD"></path><path d="M430.89,342.28a8.28,8.28,0,0,1-3-.6,7.26,7.26,0,0,1-2.81-1.77,8.09,8.09,0,0,1-5.74,1,4.41,4.41,0,0,1-3.5-4.34,5.38,5.38,0,0,1-4.16-1.42,4.51,4.51,0,0,1-1.14-4.71,5.08,5.08,0,0,1,1.24-2.06,3.92,3.92,0,0,1-1.15-3.88l.05-.19a3.8,3.8,0,0,1,3.4-2.73,4.56,4.56,0,0,1,2.92-4.44,5.17,5.17,0,0,1,4.91.44,5.68,5.68,0,0,1,3.63-2.09,6.66,6.66,0,0,1,5.28,1.3,6.08,6.08,0,0,1,5-1.14,5.58,5.58,0,0,1,3.85,3.06,5.32,5.32,0,0,1,5.18,1,4.31,4.31,0,0,1,1.07,4.73,4.82,4.82,0,0,1-.76,9.33,5.22,5.22,0,0,1,.09,3.33c-.59,2.1-2.84,3.13-4.69,3.2a10.72,10.72,0,0,1-4.39-.93,4.8,4.8,0,0,1-3.47,2.66A8.22,8.22,0,0,1,430.89,342.28Zm-5.56-3.62.26.35a5.9,5.9,0,0,0,2.66,1.78,6.82,6.82,0,0,0,4.28.33,3.74,3.74,0,0,0,3-2.52l.16-.6.53.31a9.43,9.43,0,0,0,4.4,1.05c1.51-.05,3.34-.85,3.81-2.5a4,4,0,0,0-.3-3.15l-.48-.67.81-.08a4.2,4.2,0,0,0,3.88-3.72,4.12,4.12,0,0,0-3.13-4l-.61-.17.33-.54a3.29,3.29,0,0,0-.64-4.05,4.32,4.32,0,0,0-4.59-.64l-.5.23-.16-.52a4.57,4.57,0,0,0-3.34-2.9,5.12,5.12,0,0,0-4.49,1.18l-.31.3-.33-.29a5.62,5.62,0,0,0-4.83-1.33,4.69,4.69,0,0,0-3.26,2.08l-.3.48-.43-.38a4.18,4.18,0,0,0-4.3-.62c-1.34.62-2.75,2-2.3,3.88l.13.54-.55.05c-1.7.14-2.71.83-3.08,2.1l0,.15a3,3,0,0,0,1.23,3.29l.43.36-.43.37a4.08,4.08,0,0,0-1.35,2,3.58,3.58,0,0,0,.91,3.7,4.39,4.39,0,0,0,3.87,1.07l.65-.17-.06.67a3.52,3.52,0,0,0,2.75,3.95,7.47,7.47,0,0,0,5.38-1.13Z" style="fill:#455a64"></path><path d="M425.31,349.08a2.62,2.62,0,0,1-.57-.07,1.87,1.87,0,0,1-1.18-.78,1.92,1.92,0,0,1-1.19-.08,1.6,1.6,0,0,1-1-1.19,1.37,1.37,0,0,1,.37-1.14,1.94,1.94,0,0,1-.42-1.05,1.71,1.71,0,0,1,0-.32h0a1.51,1.51,0,0,1,1-1.34,2,2,0,0,1,.92-.07,3.11,3.11,0,0,1,.66.19,1.93,1.93,0,0,1,1.31-.72,1.65,1.65,0,0,1,1.36.52,2.24,2.24,0,0,1,.61,1.45,1.83,1.83,0,0,1,1,.9,1.66,1.66,0,0,1-.1,1.53,1.59,1.59,0,0,1-1.06.73,1.29,1.29,0,0,1-.27.85A1.75,1.75,0,0,1,425.31,349.08Zm-1.58-1.56a.32.32,0,0,1,.14,0,.35.35,0,0,1,.17.19,1.2,1.2,0,0,0,.86.64,1.37,1.37,0,0,0,1.31-.29.64.64,0,0,0,.11-.52.44.44,0,0,1,.16-.48.51.51,0,0,1,.24-.07,1,1,0,0,0,.83-1.37c-.11-.26-.48-.6-.69-.57a.37.37,0,0,1-.26-.1.33.33,0,0,1-.08-.27,1.57,1.57,0,0,0-.42-1.23,1,1,0,0,0-.83-.32,1.34,1.34,0,0,0-1,.67h0a.32.32,0,0,1-.44.11.24.24,0,0,1-.09-.08,5.23,5.23,0,0,0-.58-.18,1.47,1.47,0,0,0-.62,0,.89.89,0,0,0-.54.79h0a.74.74,0,0,0,0,.21,1.23,1.23,0,0,0,.47.89.3.3,0,0,1,.12.29.29.29,0,0,1-.19.26.69.69,0,0,0-.36.7,1,1,0,0,0,.58.69,1.38,1.38,0,0,0,1,0Zm0-4Z" style="fill:#455a64"></path><path d="M419.73,352.21a2,2,0,0,1-.36,0,1.2,1.2,0,0,1-.74-.48,1.17,1.17,0,0,1-.74-.06,1,1,0,0,1-.62-.76.85.85,0,0,1,.22-.71,1.3,1.3,0,0,1-.25-.65v-.21h0a1,1,0,0,1,.62-.85,1.22,1.22,0,0,1,.59-.05,2.91,2.91,0,0,1,.4.11,1.22,1.22,0,0,1,.81-.44,1.08,1.08,0,0,1,.87.33,1.45,1.45,0,0,1,.39.9,1.19,1.19,0,0,1,.6.57,1.06,1.06,0,0,1-.07,1,1,1,0,0,1-.65.46.85.85,0,0,1-.17.52A1.13,1.13,0,0,1,419.73,352.21Zm-1-1,.1,0a.24.24,0,0,1,.12.14.7.7,0,0,0,.51.37.81.81,0,0,0,.78-.16.4.4,0,0,0,.07-.3.31.31,0,0,1,.1-.33.49.49,0,0,1,.16-.05.58.58,0,0,0,.5-.81.61.61,0,0,0-.4-.33.26.26,0,0,1-.18-.07.22.22,0,0,1-.06-.19,1,1,0,0,0-.25-.74.65.65,0,0,0-.5-.2.82.82,0,0,0-.59.41h0a.24.24,0,0,1-.32.08l-.06,0a2.19,2.19,0,0,0-.34-.11.92.92,0,0,0-.37,0,.52.52,0,0,0-.31.47.28.28,0,0,0,0,.13.72.72,0,0,0,.28.52.24.24,0,0,1,.08.21.26.26,0,0,1-.13.19.4.4,0,0,0-.21.4.55.55,0,0,0,.34.4.83.83,0,0,0,.6,0Z" style="fill:#455a64"></path></g></g></g><g id="freepik--Feeling--inject-205"><path d="M382.05,243.7a2.44,2.44,0,1,1,2.43,2.44A2.43,2.43,0,0,1,382.05,243.7Z" style="fill:#0D6EFD"></path><polygon points="417.78 237.01 397.01 237.01 384.28 243.28 384.69 244.12 397.23 237.95 417.78 237.95 417.78 237.01" style="fill:#0D6EFD"></polygon><g id="freepik--Feelings--inject-205"><ellipse cx="445.18" cy="237.49" rx="27" ry="27.2" style="fill:#fff"></ellipse><path d="M473,237.48a27.81,27.81,0,1,1-27.81-28A27.94,27.94,0,0,1,473,237.48Zm-.83,0a27,27,0,1,0-27,27.19A27.11,27.11,0,0,0,472.16,237.48Z" style="fill:#0D6EFD"></path><g id="freepik--Heart--inject-205"><path d="M461.23,234.08c0,8.53-7.48,13.64-10.67,15.82l-.08,0-.5.35-4.51,2.7L441,250.3c-.17-.13-.38-.26-.62-.42l-.16-.1c-3.3-2.17-11.05-7.26-11.05-15.7a7.51,7.51,0,0,1,6.87-7.39c-3,2-2.33,8.3,3.25,13,6,5,9.71,6.65,9.71,6.65s5.47-2.29,8.78-6.11a10.27,10.27,0,0,0,1.9-10.65A7.23,7.23,0,0,1,461.23,234.08Z" style="fill:#0D6EFD"></path><path d="M461.23,234.08c0,8.53-7.48,13.64-10.67,15.82l-.08,0-.5.35-4.51,2.7L441,250.3c-.17-.13-.38-.26-.62-.42l-.16-.1c-3.3-2.17-11.05-7.26-11.05-15.7a7.51,7.51,0,0,1,6.87-7.39c-3,2-2.33,8.3,3.25,13,6,5,9.71,6.65,9.71,6.65s5.47-2.29,8.78-6.11a10.27,10.27,0,0,0,1.9-10.65A7.23,7.23,0,0,1,461.23,234.08Z" style="fill:#fff;opacity:0.6000000000000001"></path><path d="M453.62,226.65a7.53,7.53,0,0,1,7.61,7.43c0,8.53-7.48,13.64-10.67,15.82l-.07,0-.51.35-4.51,2.7L441,250.3c-.17-.13-.38-.26-.62-.42l-.15-.1c-3.31-2.17-11.06-7.26-11.06-15.7a7.63,7.63,0,0,1,15.08-1.45,1,1,0,0,0,1,.8,1,1,0,0,0,1-.8,7.58,7.58,0,0,1,7.46-6m0-1a8.56,8.56,0,0,0-8.44,6.78,8.63,8.63,0,0,0-17.06,1.65c0,9,8.06,14.28,11.51,16.54l.78.52,5.06,3,5.06-3,.59-.41c3.33-2.27,11.11-7.59,11.11-16.65a8.52,8.52,0,0,0-8.61-8.43Z" style="fill:#455a64"></path></g></g></g><g id="freepik--Creativity--inject-205"><polygon points="359.47 184.7 358.8 184.04 395.46 146.54 404.85 146.54 404.85 147.48 395.85 147.48 359.47 184.7" style="fill:#0D6EFD"></polygon><path d="M356.7,184.37a2.44,2.44,0,1,0,2.44-2.44A2.44,2.44,0,0,0,356.7,184.37Z" style="fill:#0D6EFD"></path><g id="freepik--creativity--inject-205"><ellipse cx="431.85" cy="148.09" rx="27" ry="27.2" style="fill:#fff"></ellipse><path d="M431.85,176.1a28,28,0,1,1,27.81-28A27.95,27.95,0,0,1,431.85,176.1Zm0-55.2a27.19,27.19,0,1,0,27,27.19A27.12,27.12,0,0,0,431.85,120.9Z" style="fill:#0D6EFD"></path><path d="M443.37,147.35a12.49,12.49,0,0,1-5.18,6,4.35,4.35,0,0,0-2.17,3.5h-8.33a4.38,4.38,0,0,0-2.16-3.5,12.53,12.53,0,0,1-6.15-10.73,12.5,12.5,0,0,1,5.54-10.37c-4.14,5.29-2.41,15.78,6.63,17.39C438.47,150.83,442,148.61,443.37,147.35Z" style="fill:#0D6EFD"></path><path d="M443.37,147.35a12.49,12.49,0,0,1-5.18,6,4.35,4.35,0,0,0-2.17,3.5h-8.33a4.38,4.38,0,0,0-2.16-3.5,12.53,12.53,0,0,1-6.15-10.73,12.5,12.5,0,0,1,5.54-10.37c-4.14,5.29-2.41,15.78,6.63,17.39C438.47,150.83,442,148.61,443.37,147.35Z" style="fill:#fff;opacity:0.6000000000000001"></path><g id="freepik--Bulb--inject-205"><path d="M427.55,160.2h8.61a.65.65,0,1,0,0-1.29h-8.61a.65.65,0,0,0,0,1.29Z" style="fill:#455a64"></path><path d="M426.91,162a.65.65,0,0,1,.64-.65h8.61a.65.65,0,0,1,.65.65,4.95,4.95,0,0,1-9.9,0Z" style="fill:#455a64"></path><path d="M431.85,130.11h.61a12.64,12.64,0,0,1,11.87,12.26,12.5,12.5,0,0,1-6.13,10.92,4.36,4.36,0,0,0-2.18,3.51H427.7a4.43,4.43,0,0,0-2.17-3.5,12.53,12.53,0,0,1-6.15-10.73,12.47,12.47,0,0,1,12.47-12.47m0-.85A13.31,13.31,0,0,0,425.09,154a3.56,3.56,0,0,1,1.77,3,.59.59,0,0,0,.58.58h8.84a.61.61,0,0,0,.41-.17.63.63,0,0,0,.17-.41,3.54,3.54,0,0,1,1.77-3.05,13.33,13.33,0,0,0,6.54-11.67,13.5,13.5,0,0,0-12.67-13.09Z" style="fill:#455a64"></path><path d="M425,146.54a3.07,3.07,0,0,0,1.77.46,6.09,6.09,0,0,0,1-.1l.17,0,.08.15a10,10,0,0,1,.74,1.73,23,23,0,0,1,.75,7.58c0,.48,0,.9,0,1.33h.68c0-.43,0-.86,0-1.3a23.56,23.56,0,0,0-.79-7.82,10.51,10.51,0,0,0-.66-1.62l-.12-.23.26-.1a7.38,7.38,0,0,0,1.92-1.06,7.88,7.88,0,0,0,.91-.8l.17-.17.17.17a8.83,8.83,0,0,0,.9.8,7.43,7.43,0,0,0,1.93,1.06l.25.1-.12.23a10.51,10.51,0,0,0-.66,1.62,23.77,23.77,0,0,0-.78,7.81v1.31h.69c0-.43,0-.85,0-1.29a23.43,23.43,0,0,1,.76-7.62,10,10,0,0,1,.73-1.73l.08-.15.17,0a6.29,6.29,0,0,0,1,.1,3,3,0,0,0,1.77-.46,1,1,0,0,0,.47-1.22,1.28,1.28,0,0,0-1.28-.91,3.18,3.18,0,0,0-2.37,1.54l-.1.14-.17-.06a6.88,6.88,0,0,1-2-1,7.41,7.41,0,0,1-.92-.83l-.13-.14.11-.15a4,4,0,0,0,.85-3.32,1.49,1.49,0,0,0-2.81,0,4,4,0,0,0,.86,3.32l.11.15-.14.14a8.09,8.09,0,0,1-.91.83,6.75,6.75,0,0,1-2,1l-.17.06-.1-.14a3.2,3.2,0,0,0-2.37-1.54,1.3,1.3,0,0,0-1.29.91A1.06,1.06,0,0,0,425,146.54Zm11.21-.27.34-.36a2.2,2.2,0,0,1,1.45-.82.63.63,0,0,1,.64.44.44.44,0,0,1-.21.46,2.74,2.74,0,0,1-1.42.32h-.3Zm-4.51-3.13a3.07,3.07,0,0,1-.54-2.37.72.72,0,0,1,.75-.53.74.74,0,0,1,.76.53,3.14,3.14,0,0,1-.56,2.37l-.2.34Zm-6.53,2.39a.64.64,0,0,1,.65-.44,2.17,2.17,0,0,1,1.44.82l.35.36-.5,0h-.3a2.71,2.71,0,0,1-1.42-.32C425.27,145.93,425.05,145.78,425.12,145.53Z" style="fill:#455a64"></path></g><path d="M445.17,142.37a13.48,13.48,0,0,0-12.66-13.09c-.22,0-.45,0-.66,0a13.28,13.28,0,0,0-5.9,1.37l-.15.62a10,10,0,0,0-.88,1,12.47,12.47,0,0,1,6.93-2.1h.61a12.61,12.61,0,0,1,11.86,12.26,12.33,12.33,0,0,1-.95,5c.55-.5.79-.84.79-.76s-.31,1.14-.75,2.6A13.22,13.22,0,0,0,445.17,142.37Z" style="fill:#455a64"></path></g></g></g></svg>
